# 3ds Max Wavefront OBJ Exporter v0.97b - (c)2007 guruware
# File Created: 02.07.2011 23:11:15

mtllib AOE2.mtl

#
# object Cylinder001
#

v  1.1897 0.0029 -0.1431
v  0.8382 0.8517 -0.1431
v  0.8382 0.8517 0.1552
v  1.1897 0.0029 0.1552
v  -0.0107 1.2033 -0.1431
v  -0.0107 1.2033 0.1552
v  -0.8595 0.8517 -0.1431
v  -0.8595 0.8517 0.1552
v  -1.2111 0.0029 -0.1431
v  -1.2111 0.0029 0.1552
v  -0.8595 -0.8459 -0.1431
v  -0.8595 -0.8459 0.1552
v  -0.0107 -1.1975 -0.1431
v  -0.0107 -1.1975 0.1552
v  0.8382 -0.8459 -0.1431
v  0.8382 -0.8459 0.1552
# 16 vertices

vn 1.0000 0.0000 -0.0000
vn 0.7071 0.7071 0.0000
vn 0.0000 1.0000 0.0000
vn -0.7071 0.7071 0.0000
vn -1.0000 0.0000 -0.0000
vn -0.7071 -0.7071 -0.0000
vn 0.0000 -1.0000 -0.0000
vn 0.7071 -0.7071 -0.0000
vn 0.0000 0.0000 -1.0000
vn 0.0000 -0.0000 1.0000
# 10 vertex normals

vt 0.7500 0.0000 1.0000
vt 0.8750 0.0000 1.0000
vt 0.8750 1.0000 1.0000
vt 0.7500 1.0000 1.0000
vt 1.0000 0.0000 1.0000
vt 1.0000 1.0000 1.0000
vt 0.0000 0.0000 1.0000
vt 0.1250 0.0000 1.0000
vt 0.1250 1.0000 1.0000
vt 0.0000 1.0000 1.0000
vt 0.2500 0.0000 1.0000
vt 0.2500 1.0000 1.0000
vt 0.3750 0.0000 1.0000
vt 0.3750 1.0000 1.0000
vt 0.5000 0.0000 1.0000
vt 0.5000 1.0000 1.0000
vt 0.6250 0.0000 1.0000
vt 0.6250 1.0000 1.0000
vt 1.0000 0.5000 -0.2500
vt 0.8536 0.1464 -0.2500
vt 0.5000 0.0000 -0.2500
vt 0.1464 0.1464 -0.2500
vt 0.0000 0.5000 -0.2500
vt 0.1464 0.8536 -0.2500
vt 0.5000 1.0000 -0.2500
vt 0.8536 0.8536 -0.2500
vt 0.1464 0.8536 0.2500
vt 0.0000 0.5000 0.2500
vt 0.1464 0.1464 0.2500
vt 0.5000 0.0000 0.2500
vt 0.8536 0.1464 0.2500
vt 1.0000 0.5000 0.2500
vt 0.8536 0.8536 0.2500
vt 0.5000 1.0000 0.2500
# 34 texture coords

g Cylinder001
usemtl 01___Default
f 1/1/1 2/2/2 3/3/2 
f 3/3/2 4/4/1 1/1/1 
f 2/2/2 5/5/3 6/6/3 
f 6/6/3 3/3/2 2/2/2 
f 5/7/3 7/8/4 8/9/4 
f 8/9/4 6/10/3 5/7/3 
f 7/8/4 9/11/5 10/12/5 
f 10/12/5 8/9/4 7/8/4 
f 9/11/5 11/13/6 12/14/6 
f 12/14/6 10/12/5 9/11/5 
f 11/13/6 13/15/7 14/16/7 
f 14/16/7 12/14/6 11/13/6 
f 13/15/7 15/17/8 16/18/8 
f 16/18/8 14/16/7 13/15/7 
f 15/17/8 1/1/1 4/4/1 
f 4/4/1 16/18/8 15/17/8 
f 13/19/9 11/20/9 9/21/9 
f 9/21/9 7/22/9 5/23/9 
f 5/23/9 2/24/9 1/25/9 
f 9/21/9 5/23/9 1/25/9 
f 13/19/9 9/21/9 1/25/9 
f 15/26/9 13/19/9 1/25/9 
f 3/27/10 6/28/10 8/29/10 
f 8/29/10 10/30/10 12/31/10 
f 12/31/10 14/32/10 16/33/10 
f 8/29/10 12/31/10 16/33/10 
f 3/27/10 8/29/10 16/33/10 
f 4/34/10 3/27/10 16/33/10 
# 28 faces

