# 3ds Max Wavefront OBJ Exporter v0.97b - (c)2007 guruware
# File Created: 14.07.2011 04:22:02

mtllib Body.mtl

#
# object default
#

v  0.4519 -0.0951 1.3660
v  0.3681 -0.2478 1.3620
v  0.4092 -0.1048 1.0143
v  0.3422 -0.2357 1.0107
v  0.1944 -0.2516 1.3666
v  0.2029 -0.2387 1.0144
v  0.1044 -0.1026 1.3752
v  0.1306 -0.1108 1.0217
v  0.1882 0.0502 1.3793
v  0.1976 0.0201 1.0253
v  0.3620 0.0539 1.3747
v  0.3369 0.0231 1.0216
v  0.2699 -0.1078 1.0180
v  -0.3669 -0.1215 1.0349
v  -0.3014 -0.2622 1.3797
v  -0.3913 -0.1132 1.3884
v  -0.2946 -0.2494 1.0276
v  -0.1276 -0.2585 1.3751
v  -0.1553 -0.2464 1.0239
v  -0.0438 -0.1057 1.3792
v  -0.0883 -0.1155 1.0275
v  -0.1338 0.0433 1.3878
v  -0.1606 0.0124 1.0348
v  -0.3075 0.0395 1.3924
v  -0.2999 0.0094 1.0385
v  -0.2276 -0.1185 1.0312
v  0.4880 -0.3805 1.2682
v  -0.4170 -0.3999 1.2922
v  0.3453 -0.4146 0.0787
v  -0.3381 -0.4293 0.0968
v  -0.4308 0.1544 1.3189
v  0.4793 0.1740 1.2948
v  -0.3514 0.1249 0.1169
v  0.3358 0.1396 0.0986
v  0.3870 -0.3764 0.0865
v  0.5289 0.1376 1.2812
v  0.5387 -0.3424 1.2610
v  0.3772 0.1037 0.1067
v  -0.3837 0.0776 0.1340
v  -0.4629 -0.3679 1.2799
v  -0.4726 0.1059 1.2999
v  -0.3740 -0.3963 0.1141
v  -0.4111 -0.3613 1.3619
v  0.4744 0.1388 1.3584
v  -0.4209 0.1195 1.3822
v  0.4842 -0.3420 1.3382
v  -0.4541 -0.3857 1.3440
v  -0.4395 -0.3928 1.3237
v  0.5118 -0.3723 1.2984
v  0.5271 -0.3646 1.3179
v  0.3618 -0.4082 0.0480
v  0.3724 -0.4016 0.0283
v  -0.3685 -0.4176 0.0480
v  -0.3566 -0.4236 0.0670
v  0.5332 -0.3569 1.2982
v  0.5228 0.1538 1.3197
v  0.5164 0.1623 1.3401
v  0.3795 -0.3928 0.0484
v  0.3616 0.1253 0.0505
v  0.3691 0.1178 0.0699
v  0.4983 0.1682 1.3180
v  -0.4482 0.1478 1.3431
v  -0.4648 0.1412 1.3661
v  -0.3656 0.1171 0.0930
v  -0.3793 0.1093 0.0701
v  0.3490 0.1325 0.0740
v  -0.4651 0.1248 1.3435
v  -0.4547 -0.3842 1.3221
v  -0.3784 0.0941 0.0914
v  -0.3680 -0.4149 0.0700
v  0.3459 0.1135 0.0414
v  -0.3635 0.0982 0.0602
v  0.3562 -0.3910 0.0201
v  -0.3532 -0.4063 0.0390
v  0.3129 0.0926 0.0278
v  -0.3268 0.0765 0.0447
v  0.3239 -0.3685 0.0084
v  -0.3193 -0.3825 0.0255
v  -0.4489 0.1334 1.3744
v  0.5013 0.1539 1.3492
v  -0.4385 -0.3768 1.3530
v  0.5117 -0.3564 1.3278
# 82 vertices

vn 0.8740 -0.4770 -0.0929
vn 0.8881 -0.4525 -0.0811
vn 0.0205 -0.9991 -0.0359
vn -0.8565 -0.5147 -0.0394
vn -0.8706 -0.4892 -0.0529
vn -0.8734 0.4811 -0.0758
vn -0.8877 0.4562 -0.0623
vn -0.0237 0.9961 -0.0854
vn 0.8486 0.5184 -0.1056
vn 0.8615 0.4938 -0.1183
vn -0.0274 0.0415 -0.9988
vn -0.8564 -0.5142 -0.0469
vn -0.8708 -0.4903 -0.0345
vn 0.8745 -0.4775 -0.0853
vn 0.8868 -0.4513 -0.0995
vn 0.8466 0.5181 -0.1215
vn 0.8627 0.4939 -0.1088
vn -0.8745 0.4813 -0.0598
vn -0.8870 0.4562 -0.0719
vn 0.0222 -0.9994 0.0260
vn -0.0222 0.9994 -0.0260
vn 0.9913 0.0256 -0.1288
vn -0.9970 -0.0172 -0.0756
vn 0.0274 -0.0415 0.9988
vn 0.0294 -0.9377 0.3462
vn 0.4824 -0.8753 -0.0328
vn 0.4824 -0.8754 -0.0328
vn -0.4445 -0.8957 -0.0073
vn 0.0122 -0.9504 -0.3108
vn 0.0122 -0.9504 -0.3109
vn 0.0273 -0.9703 0.2403
vn 0.3392 -0.9406 -0.0137
vn -0.2980 -0.9546 0.0038
vn 0.0159 -0.9805 -0.1959
vn 0.9547 0.0070 0.2976
vn 0.8657 -0.4919 -0.0923
vn 0.6984 -0.7129 -0.0633
vn 0.9370 0.0337 -0.3478
vn 0.9369 0.0337 -0.3478
vn 0.6591 0.7450 -0.1025
vn 0.8356 0.5370 -0.1157
vn 0.9884 0.0138 0.1516
vn 0.9794 -0.1611 -0.1219
vn 0.8362 -0.5414 -0.0873
vn 0.9786 0.0285 -0.2038
vn 0.7997 0.5882 -0.1203
vn 0.9663 0.2251 -0.1253
vn -0.0137 0.9638 0.2664
vn -0.4284 0.9022 -0.0504
vn 0.3867 0.9193 -0.0728
vn -0.0286 0.9517 -0.3056
vn -0.0141 0.9671 0.2541
vn -0.4133 0.9093 -0.0496
vn 0.3713 0.9258 -0.0711
vn -0.0284 0.9553 -0.2943
vn -0.9994 -0.0215 0.0265
vn -0.9868 -0.1484 -0.0647
vn -0.9917 0.1091 -0.0682
vn -0.6934 -0.7199 -0.0304
vn -0.7322 0.6780 -0.0650
vn -0.9830 -0.0277 0.1818
vn -0.9902 0.1158 -0.0784
vn -0.8576 0.5093 -0.0719
vn -0.9915 -0.0148 -0.1293
vn -0.8323 -0.5521 -0.0501
vn -0.9838 -0.1672 -0.0640
vn -0.0341 0.6396 -0.7679
vn 0.4737 0.0467 -0.8795
vn 0.4737 0.0467 -0.8794
vn -0.0076 -0.6169 -0.7870
vn -0.5212 0.0253 -0.8530
vn -0.5212 0.0253 -0.8531
vn -0.0361 0.5814 -0.8128
vn -0.0339 0.5401 -0.8409
vn 0.3708 0.0479 -0.9275
vn 0.3538 0.0465 -0.9342
vn -0.0128 -0.4806 -0.8769
vn -0.0131 -0.4771 -0.8787
vn -0.3713 0.0328 -0.9279
vn -0.3877 0.0308 -0.9213
vn 0.0023 0.7330 0.6803
vn 0.0023 0.7330 0.6802
vn -0.4797 -0.0466 0.8762
vn 0.0338 -0.7392 0.6727
vn 0.0338 -0.7391 0.6727
vn 0.5271 -0.0250 0.8494
vn 0.0121 0.5037 0.8638
vn -0.2868 -0.0461 0.9569
vn -0.2869 -0.0461 0.9569
vn 0.0339 -0.5426 0.8393
vn 0.3389 -0.0326 0.9403
# 91 vertex normals

vt 0.5312 0.2072 0.0000
vt 0.5075 0.2509 0.0000
vt 0.5170 0.2073 0.0000
vt 0.5008 0.2416 0.0000
vt 0.4602 0.2509 0.0000
vt 0.4685 0.2416 0.0000
vt 0.4365 0.2072 0.0000
vt 0.4523 0.2073 0.0000
vt 0.4602 0.1635 0.0000
vt 0.4685 0.1729 0.0000
vt 0.5075 0.1635 0.0000
vt 0.5008 0.1729 0.0000
vt 0.4847 0.2073 0.0000
vt 0.4519 0.2073 0.0000
vt 0.4601 0.2509 0.0000
vt 0.4364 0.2072 0.0000
vt 0.4680 0.2416 0.0000
vt 0.5004 0.2416 0.0000
vt 0.5165 0.2073 0.0000
vt 0.5004 0.1729 0.0000
vt 0.4601 0.1635 0.0000
vt 0.4680 0.1729 0.0000
vt 0.4842 0.2073 0.0000
vt 0.4607 0.3879 0.0000
vt 0.6591 0.3879 0.0000
vt 0.4852 0.5974 0.0000
vt 0.6350 0.5974 0.0000
vt 0.6771 0.2996 0.0000
vt 0.9856 0.2996 0.0000
vt 0.7145 0.6059 0.0000
vt 0.9475 0.6059 0.0000
vt 0.9847 0.2715 0.0000
vt 0.8438 0.0361 0.0000
vt 0.9847 0.0361 0.0000
vt 0.8438 0.2715 0.0000
vt 0.8467 0.2699 0.0000
vt 0.9859 0.0376 0.0000
vt 0.8467 0.0376 0.0000
vt 0.9859 0.2699 0.0000
vt 0.5101 0.0272 0.0000
vt 0.8115 0.1251 0.0000
vt 0.5101 0.1251 0.0000
vt 0.8115 0.0272 0.0000
vt 0.4957 0.0225 0.0000
vt 0.5007 0.0211 0.0000
vt 0.8209 0.0211 0.0000
vt 0.8260 0.0225 0.0000
vt 0.4524 0.3791 0.0000
vt 0.4556 0.3826 0.0000
vt 0.4814 0.6028 0.0000
vt 0.4789 0.6062 0.0000
vt 0.6413 0.6062 0.0000
vt 0.6388 0.6028 0.0000
vt 0.6642 0.3826 0.0000
vt 0.6674 0.3791 0.0000
vt 0.9512 0.7162 0.0000
vt 0.9475 0.7173 0.0000
vt 0.7130 0.7173 0.0000
vt 0.7094 0.7162 0.0000
vt 0.5085 0.0197 0.0000
vt 0.8131 0.0197 0.0000
vt 0.9418 0.7184 0.0000
vt 0.7188 0.7184 0.0000
vt 0.8282 0.0241 0.0000
vt 0.8282 0.1282 0.0000
vt 0.8260 0.1298 0.0000
vt 0.4774 0.6027 0.0000
vt 0.4509 0.3826 0.0000
vt 0.8369 0.2829 0.0000
vt 0.8393 0.2790 0.0000
vt 0.9893 0.2790 0.0000
vt 0.9916 0.2829 0.0000
vt 0.9977 0.2876 0.0000
vt 1.0000 0.2927 0.0000
vt 0.9589 0.6128 0.0000
vt 0.9566 0.6178 0.0000
vt 0.9893 0.0286 0.0000
vt 0.8393 0.0286 0.0000
vt 0.8201 0.1312 0.0000
vt 0.5015 0.1312 0.0000
vt 0.4957 0.1298 0.0000
vt 0.6650 0.2876 0.0000
vt 0.6709 0.2935 0.0000
vt 0.7099 0.6120 0.0000
vt 0.7054 0.6178 0.0000
vt 0.9522 0.6120 0.0000
vt 0.9918 0.2935 0.0000
vt 0.7094 0.6302 0.0000
vt 0.7136 0.6291 0.0000
vt 0.9469 0.6291 0.0000
vt 0.9512 0.6302 0.0000
vt 0.8140 0.1326 0.0000
vt 0.5077 0.1326 0.0000
vt 0.7181 0.6280 0.0000
vt 0.9425 0.6280 0.0000
vt 0.4957 0.1266 0.0000
vt 0.4957 0.0229 0.0000
vt 0.7031 0.6168 0.0000
vt 0.7031 0.6114 0.0000
vt 0.6609 0.3036 0.0000
vt 0.6609 0.2982 0.0000
vt 0.9910 0.2786 0.0000
vt 0.8415 0.2786 0.0000
vt 0.6674 0.3830 0.0000
vt 0.6413 0.6024 0.0000
vt 0.8415 0.0290 0.0000
vt 0.9910 0.0290 0.0000
vt 0.9461 0.6320 0.0000
vt 0.7145 0.6320 0.0000
vt 0.9461 0.7144 0.0000
vt 0.8402 0.2848 0.0000
vt 0.7145 0.7144 0.0000
vt 0.9883 0.2848 0.0000
vt 0.9353 0.6353 0.0000
vt 0.7265 0.6356 0.0000
vt 0.9358 0.7105 0.0000
vt 0.7259 0.7106 0.0000
vt 0.5009 0.1281 0.0000
vt 0.8207 0.1281 0.0000
vt 0.5009 0.0242 0.0000
vt 0.8207 0.0242 0.0000
vt 0.0000 0.0000 0.0000
vt 0.0000 1.0000 0.0000
vt 1.0000 1.0000 0.0000
vt 1.0000 0.0000 0.0000
# 125 texture coords

g default
usemtl 03___Default
f 1/1/1 2/2/1 3/3/1 
f 2/2/2 4/4/2 3/3/2 
f 2/2/3 5/5/3 4/4/3 
f 5/5/3 6/6/3 4/4/3 
f 5/5/4 7/7/4 6/6/4 
f 7/7/5 8/8/5 6/6/5 
f 7/7/6 9/9/6 8/8/6 
f 9/9/7 10/10/7 8/8/7 
f 9/9/8 11/11/8 10/10/8 
f 11/11/8 12/12/8 10/10/8 
f 11/11/9 1/1/9 12/12/9 
f 1/1/10 3/3/10 12/12/10 
f 13/13/11 3/3/11 4/4/11 
f 13/13/11 4/4/11 6/6/11 
f 13/13/11 6/6/11 8/8/11 
f 13/13/11 8/8/11 10/10/11 
f 13/13/11 10/10/11 12/12/11 
f 13/13/11 12/12/11 3/3/11 
f 14/14/12 15/15/12 16/16/12 
f 14/14/13 17/17/13 15/15/13 
f 17/17/3 18/2/3 15/15/3 
f 17/17/3 19/18/3 18/2/3 
f 19/18/14 20/1/14 18/2/14 
f 19/18/15 21/19/15 20/1/15 
f 21/19/16 22/11/16 20/1/16 
f 21/19/17 23/20/17 22/11/17 
f 23/20/8 24/21/8 22/11/8 
f 23/20/8 25/22/8 24/21/8 
f 25/22/18 16/16/18 24/21/18 
f 25/22/19 14/14/19 16/16/19 
f 17/17/11 14/14/11 26/23/11 
f 19/18/11 17/17/11 26/23/11 
f 21/19/11 19/18/11 26/23/11 
f 23/20/11 21/19/11 26/23/11 
f 25/22/11 23/20/11 26/23/11 
f 14/14/11 25/22/11 26/23/11 
f 27/24/20 28/25/20 29/26/20 
f 28/25/20 30/27/20 29/26/20 
f 31/28/21 32/29/21 33/30/21 
f 32/29/21 34/31/21 33/30/21 
f 35/32/22 36/33/22 37/34/22 
f 35/32/22 38/35/22 36/33/22 
f 39/36/23 40/37/23 41/38/23 
f 39/36/23 42/39/23 40/37/23 
f 43/40/24 44/41/24 45/42/24 
f 43/40/24 46/43/24 44/41/24 
f 47/44/25 48/45/25 49/46/25 
f 49/46/25 50/47/25 47/44/25 
f 50/48/26 49/49/26 51/50/26 
f 51/50/27 52/51/27 50/48/27 
f 53/52/28 54/53/28 48/54/28 
f 48/54/28 47/55/28 53/52/28 
f 52/56/29 51/57/29 54/58/29 
f 54/58/30 53/59/30 52/56/30 
f 48/45/31 28/60/31 27/61/31 
f 27/61/31 49/46/31 48/45/31 
f 49/49/32 27/24/32 29/26/32 
f 29/26/32 51/50/32 49/49/32 
f 54/53/33 30/27/33 28/25/33 
f 28/25/33 48/54/33 54/53/33 
f 51/57/34 29/62/34 30/63/34 
f 30/63/34 54/58/34 51/57/34 
f 50/47/35 55/64/35 56/65/35 
f 56/65/35 57/66/35 50/47/35 
f 52/51/36 58/67/36 55/68/36 
f 55/68/37 50/48/37 52/51/37 
f 59/69/38 60/70/38 58/71/38 
f 58/71/39 52/72/39 59/69/39 
f 57/73/40 56/74/40 60/75/40 
f 60/75/41 59/76/41 57/73/41 
f 55/77/42 37/34/42 36/33/42 
f 36/33/42 56/78/42 55/77/42 
f 58/71/43 35/32/43 37/34/43 
f 37/34/44 55/77/44 58/71/44 
f 60/70/45 38/35/45 35/32/45 
f 35/32/45 58/71/45 60/70/45 
f 56/78/46 36/33/46 38/35/46 
f 38/35/47 60/70/47 56/78/47 
f 57/66/48 61/79/48 62/80/48 
f 62/80/48 63/81/48 57/66/48 
f 63/82/49 62/83/49 64/84/49 
f 64/84/49 65/85/49 63/82/49 
f 59/76/50 66/86/50 61/87/50 
f 61/87/50 57/73/50 59/76/50 
f 65/88/51 64/89/51 66/90/51 
f 66/90/51 59/91/51 65/88/51 
f 61/79/52 32/92/52 31/93/52 
f 31/93/52 62/80/52 61/79/52 
f 62/83/53 31/28/53 33/30/53 
f 33/30/53 64/84/53 62/83/53 
f 66/86/54 34/31/54 32/29/54 
f 32/29/54 61/87/54 66/86/54 
f 64/89/55 33/94/55 34/95/55 
f 34/95/55 66/90/55 64/89/55 
f 63/81/56 67/96/56 68/97/56 
f 68/97/56 47/44/56 63/81/56 
f 65/98/57 69/99/57 67/100/57 
f 67/100/58 63/101/58 65/98/58 
f 53/72/56 70/102/56 69/103/56 
f 69/103/56 65/69/56 53/72/56 
f 47/55/59 68/104/59 70/105/59 
f 70/105/60 53/52/60 47/55/60 
f 67/106/61 41/38/61 40/37/61 
f 40/37/61 68/107/61 67/106/61 
f 69/103/62 39/36/62 41/38/62 
f 41/38/63 67/106/63 69/103/63 
f 70/102/64 42/39/64 39/36/64 
f 39/36/64 69/103/64 70/102/64 
f 68/107/65 40/37/65 42/39/65 
f 42/39/66 70/102/66 68/107/66 
f 59/91/67 71/108/67 72/109/67 
f 72/109/67 65/88/67 59/91/67 
f 52/56/68 73/110/68 71/108/68 
f 71/111/69 59/69/69 52/72/69 
f 53/59/70 74/112/70 73/110/70 
f 73/110/70 52/56/70 53/59/70 
f 65/69/71 72/111/71 74/113/71 
f 74/113/72 53/72/72 65/69/72 
f 71/108/73 75/114/73 76/115/73 
f 76/115/74 72/109/74 71/108/74 
f 73/110/75 77/116/75 75/114/75 
f 75/114/76 71/108/76 73/110/76 
f 74/112/77 78/117/77 77/116/77 
f 77/116/78 73/110/78 74/112/78 
f 72/109/79 76/115/79 78/117/79 
f 78/117/80 74/112/80 72/109/80 
f 63/81/81 79/118/81 80/119/81 
f 80/119/82 57/66/82 63/81/82 
f 47/44/83 81/120/83 79/118/83 
f 79/118/83 63/81/83 47/44/83 
f 50/47/84 82/121/84 81/120/84 
f 81/120/85 47/44/85 50/47/85 
f 57/66/86 80/119/86 82/121/86 
f 82/121/86 50/47/86 57/66/86 
f 79/118/87 45/42/87 44/41/87 
f 44/41/87 80/119/87 79/118/87 
f 81/120/88 43/40/88 45/42/88 
f 45/42/89 79/118/89 81/120/89 
f 82/121/90 46/43/90 43/40/90 
f 43/40/90 81/120/90 82/121/90 
f 80/119/91 44/41/91 46/43/91 
f 46/43/91 82/121/91 80/119/91 
f 76/122/11 75/123/11 77/124/11 
f 76/122/11 77/124/11 78/125/11 
# 144 faces

