# 3ds Max Wavefront OBJ Exporter v0.97b - (c)2007 guruware
# File Created: 14.07.2011 04:17:45

mtllib LowerArm.mtl

#
# object default
#

v  -0.1494 -0.2242 -0.5253
v  -0.2130 -0.0046 -0.5582
v  0.0904 0.0852 -0.5750
v  -0.2350 -0.1093 -0.5221
v  -0.0409 0.1410 -0.5623
v  -0.1679 0.1164 -0.5449
v  0.1760 -0.0297 -0.5782
v  -0.0181 -0.2800 -0.5380
v  0.1830 -0.1598 -0.5707
v  0.1089 -0.2554 -0.5553
v  -0.0935 -0.0054 -0.2995
v  -0.0288 -0.0445 -0.2969
v  -0.0969 -0.0834 -0.2898
v  -0.0322 -0.1226 -0.2871
v  0.0360 -0.0837 -0.2942
v  0.0393 -0.0056 -0.3039
v  -0.0254 0.0336 -0.3066
v  -0.0751 -0.0418 0.0682
v  -0.0719 0.0361 0.0606
v  -0.0106 -0.0814 0.0668
v  0.0571 -0.0431 0.0578
v  0.0603 0.0347 0.0501
v  -0.0042 0.0743 0.0516
v  -0.0781 0.1383 0.1127
v  -0.1595 0.0042 0.1320
v  0.0894 -0.1555 0.0787
v  0.1715 -0.0219 0.0592
v  -0.0824 -0.0144 0.5561
v  -0.1485 -0.0699 0.4140
v  -0.1942 -0.1423 0.4175
v  0.1027 -0.2311 0.3601
v  0.0338 -0.0890 0.5312
v  0.0570 -0.3034 0.3636
v  0.0293 0.2225 0.3683
v  0.0401 0.1867 0.5258
v  0.0625 0.2794 0.3531
v  0.2805 0.0613 0.3145
v  0.3138 0.1182 0.2992
v  0.1564 0.1121 0.5009
v  -0.0013 0.2081 0.2685
v  0.0088 0.2524 0.1832
v  0.2499 0.0469 0.2147
v  0.2601 0.0912 0.1293
v  -0.0738 0.1163 0.2050
v  0.1774 -0.0449 0.1512
v  -0.1324 0.0206 0.2183
v  0.1188 -0.1406 0.1644
v  -0.1632 -0.0571 0.3071
v  -0.2073 -0.1018 0.2351
v  0.0880 -0.2183 0.2533
v  0.0439 -0.2630 0.1813
v  -0.1121 -0.1443 0.0276
v  -0.0177 -0.1783 0.0208
v  -0.0117 -0.0148 0.0068
v  0.0789 -0.1498 0.0086
v  0.1410 -0.0698 -0.0042
v  0.1447 0.0312 -0.0129
v  0.0887 0.1147 -0.0140
v  -0.0057 0.1487 -0.0071
v  -0.1023 0.1203 0.0050
v  -0.1644 0.0403 0.0179
v  -0.1681 -0.0608 0.0265
# 62 vertices

vn -0.0100 -0.1510 -0.9885
vn -0.3533 -0.2378 -0.9048
vn -0.0720 0.0571 -0.9958
vn -0.1652 0.1678 -0.9719
vn -0.1228 -0.0638 -0.9904
vn -0.0329 -0.1221 -0.9920
vn -0.9974 0.0465 0.0545
vn -0.9972 0.0500 0.0548
vn -0.5167 -0.8462 0.1299
vn -0.5171 -0.8460 0.1300
vn 0.4977 -0.8645 0.0705
vn 0.5005 -0.8629 0.0694
vn 0.9974 -0.0465 -0.0545
vn 0.9973 -0.0498 -0.0533
vn 0.5170 0.8465 -0.1269
vn 0.5173 0.8464 -0.1268
vn -0.4976 0.8647 -0.0688
vn -0.5005 0.8630 -0.0692
vn -0.9859 0.0245 -0.1656
vn -0.5211 0.1966 -0.8306
vn -0.5228 -0.8486 -0.0807
vn -0.5601 -0.7935 -0.2380
vn -0.0238 -0.1897 -0.9816
vn 0.0442 -0.1706 -0.9843
vn 0.0310 -0.0986 -0.9947
vn 0.3828 0.6472 -0.6592
vn 0.4675 0.8301 -0.3038
vn -0.3441 0.4097 -0.8448
vn -0.8283 0.5314 0.1775
vn 0.6835 -0.4020 0.6092
vn 0.7593 -0.2873 0.5839
vn 0.8283 -0.5314 -0.1775
vn -0.8311 0.5311 0.1650
vn 0.8262 -0.5316 -0.1865
vn -0.8309 0.5313 0.1650
vn -0.8330 0.5291 0.1615
vn 0.8263 -0.5315 -0.1864
vn 0.8242 -0.5336 -0.1899
vn -0.8379 0.5205 0.1647
vn -0.8251 0.5385 0.1712
vn 0.8206 -0.5399 -0.1876
vn 0.8307 -0.5259 -0.1825
vn -0.8283 0.5315 0.1775
vn 0.3949 0.7785 -0.4879
vn -0.5563 -0.8178 -0.1476
vn -0.4789 -0.8359 0.2682
vn -0.1312 -0.4919 0.8607
vn 0.2127 0.0051 0.9771
vn 0.5002 0.5587 0.6615
vn 0.5437 0.8389 0.0257
vn -0.2325 -0.6142 0.7541
vn 0.5486 0.7051 0.4493
vn 0.5487 0.7051 0.4493
vn 0.4745 0.8338 -0.2822
vn 0.1075 0.4617 -0.8805
vn -0.4737 -0.4949 -0.7285
vn -0.5559 -0.8191 -0.1415
vn 0.1010 0.0809 0.9916
vn -0.3249 -0.9327 0.1568
vn -0.3719 -0.9132 0.1665
vn 0.2978 -0.9392 0.1708
vn 0.2116 -0.9586 0.1907
vn 0.7928 -0.5901 0.1526
vn 0.9964 -0.0300 0.0788
vn 0.9972 0.0570 0.0490
vn 0.8304 0.5570 -0.0141
vn 0.8014 0.5975 -0.0289
vn 0.3356 0.9407 -0.0484
vn 0.3877 0.9210 -0.0374
vn -0.2817 0.9595 0.0046
vn -0.1880 0.9820 0.0156
vn -0.7802 0.6191 0.0888
vn -0.9378 0.3431 0.0524
vn -0.9958 0.0436 0.0806
vn -0.9667 0.2370 0.0970
vn -0.8221 -0.5496 0.1489
vn -0.7924 -0.5939 0.1394
# 77 vertex normals

vt 1.0000 0.0000 0.0000
vt 1.0000 1.0000 0.0000
vt 0.0000 0.0000 0.0000
vt 0.8646 0.9234 0.0000
vt 0.8601 0.8962 0.0000
vt 0.8655 0.9100 0.0000
vt 0.8609 0.8828 0.0000
vt 0.8555 0.8690 0.0000
vt 0.8547 0.8825 0.0000
vt 0.8592 0.9097 0.0000
vt 0.7555 0.9324 0.0000
vt 0.7541 0.9459 0.0000
vt 0.7523 0.9049 0.0000
vt 0.7475 0.8910 0.0000
vt 0.7461 0.9046 0.0000
vt 0.7494 0.9320 0.0000
vt 0.7346 0.9705 0.0000
vt 0.7417 0.9708 0.0000
vt 0.7435 0.8607 0.0000
vt 0.7365 0.8602 0.0000
vt 0.6102 0.9685 0.0000
vt 0.6604 0.9697 0.0000
vt 0.6664 0.9700 0.0000
vt 0.6622 0.8587 0.0000
vt 0.6110 0.9171 0.0000
vt 0.6682 0.8589 0.0000
vt 0.6460 0.9689 0.0000
vt 0.5999 0.9679 0.0000
vt 0.6452 0.9688 0.0000
vt 0.6478 0.8578 0.0000
vt 0.6470 0.8577 0.0000
vt 0.6007 0.9165 0.0000
vt 0.6788 0.9696 0.0000
vt 0.7013 0.9700 0.0000
vt 0.6807 0.8586 0.0000
vt 0.7032 0.8590 0.0000
vt 0.7079 0.9704 0.0000
vt 0.7097 0.8594 0.0000
vt 0.7131 0.9707 0.0000
vt 0.7149 0.8596 0.0000
vt 0.6928 0.9704 0.0000
vt 0.7199 0.9711 0.0000
vt 0.6946 0.8593 0.0000
vt 0.7217 0.8600 0.0000
vt 0.7340 0.8153 0.0000
vt 0.7219 0.8279 0.0000
vt 0.7344 0.8208 0.0000
vt 0.7145 0.8377 0.0000
vt 0.7147 0.8411 0.0000
vt 0.7224 0.8367 0.0000
vt 0.7347 0.8262 0.0000
vt 0.7469 0.8136 0.0000
vt 0.7543 0.8038 0.0000
vt 0.7541 0.8004 0.0000
vt 0.7463 0.8049 0.0000
vt 0.6550 0.7561 0.0000
vt 0.6368 0.7736 0.0000
vt 0.6257 0.7868 0.0000
vt 0.6260 0.7908 0.0000
vt 0.6375 0.7840 0.0000
vt 0.6558 0.7690 0.0000
vt 0.6739 0.7515 0.0000
vt 0.6850 0.7382 0.0000
vt 0.6760 0.7359 0.0000
vt 0.6733 0.7410 0.0000
# 65 texture coords

g default
usemtl 02___Default
f 1/1/1 2/2/1 3/1/1 
f 1/1/2 4/2/2 2/2/2 
f 3/1/3 2/2/3 5/3/3 
f 6/3/4 5/1/4 2/2/4 
f 7/1/5 1/2/5 3/3/5 
f 8/1/5 1/2/5 7/3/5 
f 7/3/5 9/1/5 8/2/5 
f 9/3/5 10/1/5 8/2/5 
f 11/4/6 12/5/6 13/6/6 
f 13/6/6 12/5/6 14/7/6 
f 14/7/6 12/5/6 15/8/6 
f 15/8/6 12/5/6 16/9/6 
f 16/9/6 12/5/6 17/10/6 
f 17/10/6 12/5/6 11/4/6 
f 18/11/7 19/12/7 11/4/7 
f 18/11/8 11/4/8 13/6/8 
f 20/13/9 18/11/9 13/6/9 
f 20/13/10 13/6/10 14/7/10 
f 21/14/11 20/13/11 14/7/11 
f 21/14/12 14/7/12 15/8/12 
f 22/15/13 21/14/13 15/8/13 
f 22/15/14 15/8/14 16/9/14 
f 23/16/15 22/15/15 16/9/15 
f 23/16/16 16/9/16 17/10/16 
f 19/12/17 23/16/17 17/10/17 
f 19/12/18 17/10/18 11/4/18 
f 24/17/19 19/12/19 18/11/19 
f 25/18/20 24/17/20 18/11/20 
f 25/18/21 18/11/21 20/13/21 
f 26/19/22 25/18/22 20/13/22 
f 26/19/23 20/13/23 21/14/23 
f 27/20/24 26/19/24 21/14/24 
f 27/20/25 21/14/25 22/15/25 
f 27/20/26 22/15/26 23/16/26 
f 24/17/27 27/20/27 23/16/27 
f 24/17/28 23/16/28 19/12/28 
f 28/21/29 29/22/29 30/23/29 
f 31/24/30 32/25/30 33/26/30 
f 34/27/29 35/28/29 36/29/29 
f 37/30/31 38/31/31 39/32/31 
f 40/33/29 34/27/29 36/29/29 
f 40/33/29 36/29/29 41/34/29 
f 37/30/32 42/35/32 38/31/32 
f 42/35/32 43/36/32 38/31/32 
f 44/37/29 40/33/29 41/34/29 
f 44/37/33 41/34/33 24/17/33 
f 42/35/32 45/38/32 43/36/32 
f 45/38/34 27/20/34 43/36/34 
f 46/39/35 44/37/35 24/17/35 
f 46/39/36 24/17/36 25/18/36 
f 45/38/37 47/40/37 27/20/37 
f 47/40/38 26/19/38 27/20/38 
f 48/41/39 46/39/39 25/18/39 
f 48/41/40 25/18/40 49/42/40 
f 47/40/41 50/43/41 26/19/41 
f 50/43/42 51/44/42 26/19/42 
f 29/22/43 48/41/43 49/42/43 
f 29/22/29 49/42/29 30/23/29 
f 50/43/32 31/24/32 51/44/32 
f 31/24/32 33/26/32 51/44/32 
f 29/22/44 28/21/44 31/24/44 
f 28/21/44 32/25/44 31/24/44 
f 35/28/45 34/27/45 39/32/45 
f 34/27/45 37/30/45 39/32/45 
f 34/27/46 40/33/46 37/30/46 
f 40/33/46 42/35/46 37/30/46 
f 40/33/47 44/37/47 42/35/47 
f 44/37/47 45/38/47 42/35/47 
f 44/37/48 46/39/48 45/38/48 
f 46/39/48 47/40/48 45/38/48 
f 46/39/49 48/41/49 47/40/49 
f 48/41/49 50/43/49 47/40/49 
f 48/41/50 29/22/50 50/43/50 
f 29/22/50 31/24/50 50/43/50 
f 28/21/51 30/23/51 33/26/51 
f 28/21/51 33/26/51 32/25/51 
f 36/29/52 35/28/52 39/32/52 
f 36/29/53 39/32/53 38/31/53 
f 41/34/54 36/29/54 38/31/54 
f 41/34/54 38/31/54 43/36/54 
f 24/17/55 41/34/55 43/36/55 
f 24/17/55 43/36/55 27/20/55 
f 49/42/56 25/18/56 26/19/56 
f 49/42/56 26/19/56 51/44/56 
f 30/23/57 49/42/57 51/44/57 
f 30/23/57 51/44/57 33/26/57 
f 52/45/58 53/46/58 54/47/58 
f 53/46/58 55/48/58 54/47/58 
f 55/48/58 56/49/58 54/47/58 
f 56/49/58 57/50/58 54/47/58 
f 57/50/58 58/51/58 54/47/58 
f 58/51/58 59/52/58 54/47/58 
f 59/52/58 60/53/58 54/47/58 
f 60/53/58 61/54/58 54/47/58 
f 61/54/58 62/55/58 54/47/58 
f 62/55/58 52/45/58 54/47/58 
f 52/45/59 1/56/59 53/46/59 
f 53/46/60 1/56/60 8/57/60 
f 55/48/61 53/46/61 8/57/61 
f 55/48/62 8/57/62 10/58/62 
f 56/49/63 55/48/63 10/58/63 
f 56/49/63 10/58/63 9/59/63 
f 57/50/64 56/49/64 9/59/64 
f 57/50/65 9/59/65 7/60/65 
f 58/51/66 57/50/66 7/60/66 
f 58/51/67 7/60/67 3/61/67 
f 59/52/68 58/51/68 3/61/68 
f 59/52/69 3/61/69 5/62/69 
f 60/53/70 59/52/70 5/62/70 
f 60/53/71 5/62/71 6/63/71 
f 61/54/72 60/53/72 6/63/72 
f 61/54/73 6/63/73 2/64/73 
f 62/55/74 61/54/74 2/64/74 
f 62/55/75 2/64/75 4/65/75 
f 52/45/76 62/55/76 4/65/76 
f 4/65/77 1/56/77 52/45/77 
# 116 faces

