# 3ds Max Wavefront OBJ Exporter v0.97b - (c)2007 guruware
# File Created: 14.07.2011 04:19:35

mtllib UpperLeg.mtl

#
# object default
#

v  -0.2656 -0.3441 0.4065
v  -0.2526 0.3441 0.4029
v  0.3422 0.3279 0.4179
v  0.3292 -0.3561 0.4215
v  -0.2825 -0.2975 1.1302
v  0.3136 0.1772 1.1414
v  -0.2740 0.1882 1.1271
v  0.3045 -0.3085 1.1445
v  -0.2686 0.0011 0.8133
v  -0.2589 0.1848 0.5574
v  -0.2610 -0.0008 0.4983
v  -0.2606 0.3001 0.7143
v  -0.2653 0.3013 0.9089
v  -0.2719 -0.2990 0.7176
v  -0.2659 -0.1855 0.5595
v  0.3178 -0.0099 0.8275
v  0.3254 -0.0118 0.5125
v  0.3275 0.1738 0.5717
v  0.3258 0.2891 0.7285
v  0.3211 0.2903 0.9232
v  0.3145 -0.3100 0.7319
v  0.3205 -0.1965 0.5737
v  -0.2589 0.2586 0.5726
v  0.3393 0.3363 0.5873
v  0.3376 0.2474 0.5868
v  -0.2573 0.3475 0.5730
v  0.3262 -0.3547 0.5915
v  -0.2685 -0.2492 0.5754
v  0.3280 -0.2604 0.5897
v  -0.2703 -0.3435 0.5773
v  0.3376 0.1500 0.5136
v  0.3353 -0.0071 0.4852
v  0.3317 -0.1639 0.5154
v  -0.2601 0.0044 0.4705
v  -0.2578 0.1620 0.4996
v  -0.2634 -0.1530 0.5014
v  0.0399 0.0005 0.7125
v  0.0404 0.0557 0.7331
v  0.0382 0.0010 0.7839
v  0.0396 0.0789 0.7834
v  0.0380 0.0564 0.8340
v  0.0364 0.0014 0.8552
v  0.0359 -0.0538 0.8346
v  0.0367 -0.0770 0.7843
v  0.0383 -0.0545 0.7337
v  -0.2733 0.0074 0.7048
v  -0.2727 0.0624 0.7256
v  -0.2735 0.0855 0.7765
v  -0.2752 0.0631 0.8277
v  -0.2768 0.0083 0.8492
v  -0.2773 -0.0467 0.8283
v  -0.2765 -0.0697 0.7774
v  -0.2748 -0.0473 0.7262
v  -0.2657 0.0059 0.5005
v  -0.2699 -0.1539 0.5510
# 55 vertices

vn 0.0250 -0.0058 -0.9997
vn -0.0241 0.0068 0.9997
vn -0.9995 0.0187 -0.0242
vn -0.9994 0.0204 -0.0294
vn -0.9995 0.0174 -0.0276
vn -0.9995 0.0193 -0.0258
vn -0.9995 0.0188 -0.0242
vn 0.9995 -0.0187 0.0242
vn 0.9995 -0.0189 0.0246
vn 0.9995 -0.0186 0.0245
vn 0.9995 -0.0188 0.0243
vn 0.9995 -0.0188 0.0242
vn 0.0288 0.3032 -0.9525
vn 0.0295 0.8053 -0.5921
vn 0.0189 0.9998 -0.0056
vn 0.0055 0.8877 0.4604
vn -0.0188 -0.9998 0.0032
vn -0.0011 -0.8124 -0.5831
vn 0.0171 -0.3147 -0.9490
vn 0.0240 0.0045 -0.9997
vn 0.0235 -0.0198 -0.9995
vn 0.4622 0.1514 -0.8737
vn 0.9997 -0.0189 0.0130
vn 0.9997 -0.0153 0.0197
vn 0.9997 -0.0187 0.0180
vn 0.9996 -0.0214 0.0176
vn 0.9997 -0.0204 0.0156
vn -0.0276 -0.1776 0.9837
vn -0.0268 -0.1806 0.9832
vn -0.0310 -0.6006 0.7989
vn -0.0304 -0.6030 0.7972
vn -0.0075 0.6102 0.7922
vn -0.0196 0.1894 0.9817
vn -0.0204 0.1927 0.9811
vn 0.0284 0.9984 -0.0495
vn 0.0192 0.9996 -0.0199
vn -0.0189 -0.9998 0.0077
vn -0.0203 -0.9998 0.0025
vn 0.0308 0.3489 -0.9367
vn 0.0299 0.3539 -0.9348
vn 0.0294 0.9084 -0.4171
vn 0.0282 0.9109 -0.4117
vn 0.0103 0.9134 0.4070
vn 0.0115 0.9158 0.4016
vn -0.0110 0.3601 0.9328
vn -0.0098 0.3651 0.9309
vn -0.0257 -0.3490 0.9368
vn -0.0268 -0.3539 0.9349
vn -0.0291 -0.9084 0.4171
vn -0.0301 -0.9109 0.4116
vn -0.0121 -0.9133 -0.4071
vn -0.0113 -0.9158 -0.4015
vn 0.0141 -0.3602 -0.9328
vn 0.0150 -0.3652 -0.9308
vn -0.9990 0.0237 -0.0373
vn -0.9992 0.0139 -0.0365
vn -0.9992 0.0146 -0.0373
vn -0.9997 0.0189 -0.0162
vn -0.9997 0.0186 -0.0147
vn -0.9996 0.0182 -0.0197
vn -0.9991 0.0276 -0.0328
vn -0.9994 0.0187 -0.0278
vn -0.9994 0.0188 -0.0281
vn -0.9994 0.0118 -0.0316
# 64 vertex normals

vt 0.0000 0.0000 0.0000
vt 1.0000 0.0000 0.0000
vt 1.0000 1.0000 0.0000
vt 0.3567 0.2191 0.0000
vt 0.3175 0.2657 0.0000
vt 0.3567 0.2767 0.0000
vt 0.2932 0.2369 0.0000
vt 0.2932 0.2012 0.0000
vt 0.3175 0.1614 0.0000
vt 0.4203 0.1614 0.0000
vt 0.4201 0.2369 0.0000
vt 0.3959 0.2657 0.0000
vt 0.2404 0.6297 0.0000
vt 0.0451 0.6297 0.0000
vt 0.0451 0.6151 0.0000
vt 0.2404 0.6151 0.0000
vt 0.0451 0.5770 0.0000
vt 0.2404 0.5770 0.0000
vt 0.0451 0.5299 0.0000
vt 0.2404 0.5299 0.0000
vt 0.0446 0.4772 0.0000
vt 0.2404 0.4772 0.0000
vt 0.2551 0.4773 0.0000
vt 0.4317 0.4773 0.0000
vt 0.4315 0.5789 0.0000
vt 0.2551 0.5789 0.0000
vt 0.4315 0.6177 0.0000
vt 0.2551 0.6177 0.0000
vt 0.4315 0.6325 0.0000
vt 0.2551 0.6325 0.0000
vt 0.6998 0.2133 0.0000
vt 0.7523 0.2072 0.0000
vt 0.7523 0.2133 0.0000
vt 0.6998 0.2072 0.0000
vt 0.7523 0.2552 0.0000
vt 0.6998 0.2486 0.0000
vt 0.7523 0.2486 0.0000
vt 0.6998 0.2552 0.0000
vt 0.7523 0.2201 0.0000
vt 0.7523 0.2310 0.0000
vt 0.7522 0.2552 0.0000
vt 0.7522 0.2077 0.0000
vt 0.7523 0.2419 0.0000
vt 0.6999 0.2310 0.0000
vt 0.6999 0.2200 0.0000
vt 0.6999 0.2419 0.0000
vt 0.6998 0.2073 0.0000
vt 0.6998 0.2551 0.0000
vt 0.5817 0.2173 0.0000
vt 0.5736 0.2138 0.0000
vt 0.5817 0.2053 0.0000
vt 0.5702 0.2053 0.0000
vt 0.5736 0.1969 0.0000
vt 0.5817 0.1934 0.0000
vt 0.5898 0.1969 0.0000
vt 0.5932 0.2053 0.0000
vt 0.5898 0.2138 0.0000
vt 0.5815 0.2173 0.0000
vt 0.5734 0.2137 0.0000
vt 0.5701 0.2052 0.0000
vt 0.5734 0.1967 0.0000
vt 0.5815 0.1931 0.0000
vt 0.5896 0.1967 0.0000
vt 0.5930 0.2052 0.0000
vt 0.5896 0.2137 0.0000
vt 0.5816 0.2514 0.0000
vt 0.6052 0.2431 0.0000
# 67 texture coords

g default
usemtl 03___Default
f 1/1/1 2/2/1 3/3/1 
f 1/1/1 3/3/1 4/2/1 
f 5/1/2 6/2/2 7/3/2 
f 8/1/2 6/3/2 5/2/2 
f 9/4/3 10/5/3 11/6/3 
f 9/4/3 12/7/3 10/5/3 
f 9/4/3 13/8/3 12/7/3 
f 9/4/4 7/9/4 13/8/4 
f 9/4/5 5/10/5 7/9/5 
f 9/4/6 14/11/6 5/10/6 
f 9/4/7 15/12/7 14/11/7 
f 9/4/3 11/6/3 15/12/3 
f 16/4/8 17/6/8 18/5/8 
f 16/4/8 18/5/8 19/7/8 
f 16/4/8 19/7/8 20/8/8 
f 16/4/9 20/8/9 6/9/9 
f 16/4/10 6/9/10 8/10/10 
f 16/4/11 8/10/11 21/11/11 
f 16/4/8 21/11/8 22/12/8 
f 16/4/12 22/12/12 17/6/12 
f 17/13/13 11/14/13 10/15/13 
f 18/16/13 17/13/13 10/15/13 
f 18/16/14 10/15/14 12/17/14 
f 19/18/14 18/16/14 12/17/14 
f 19/18/15 12/17/15 13/19/15 
f 20/20/15 19/18/15 13/19/15 
f 20/20/16 13/19/16 7/21/16 
f 6/22/16 20/20/16 7/21/16 
f 8/23/17 5/24/17 14/25/17 
f 21/26/17 8/23/17 14/25/17 
f 21/26/18 14/25/18 15/27/18 
f 22/28/18 21/26/18 15/27/18 
f 22/28/19 15/27/19 11/29/19 
f 17/30/19 22/28/19 11/29/19 
f 23/31/20 24/32/20 25/33/20 
f 23/31/20 26/34/20 24/32/20 
f 27/35/21 28/36/21 29/37/21 
f 30/38/21 28/36/21 27/35/21 
f 31/39/22 32/40/22 4/41/22 
f 31/39/23 4/41/23 3/42/23 
f 25/33/24 31/39/24 3/42/24 
f 25/33/25 3/42/25 24/32/25 
f 33/43/8 29/37/8 27/35/8 
f 33/43/26 27/35/26 4/41/26 
f 32/40/27 33/43/27 4/41/27 
f 32/40/28 31/39/28 34/44/28 
f 31/39/29 35/45/29 34/44/29 
f 31/39/30 25/33/30 35/45/30 
f 25/33/31 23/31/31 35/45/31 
f 29/37/32 33/43/32 28/36/32 
f 33/43/32 36/46/32 28/36/32 
f 33/43/33 32/40/33 36/46/33 
f 32/40/34 34/44/34 36/46/34 
f 24/32/35 3/42/35 2/47/35 
f 24/32/36 2/47/36 26/34/36 
f 4/41/37 27/35/37 30/38/37 
f 30/38/38 1/48/38 4/41/38 
f 37/49/12 38/50/12 39/51/12 
f 38/50/12 40/52/12 39/51/12 
f 40/52/12 41/53/12 39/51/12 
f 41/53/8 42/54/8 39/51/8 
f 42/54/12 43/55/12 39/51/12 
f 43/55/8 44/56/8 39/51/8 
f 44/56/8 45/57/8 39/51/8 
f 45/57/8 37/49/8 39/51/8 
f 38/50/39 37/49/39 46/58/39 
f 38/50/40 46/58/40 47/59/40 
f 40/52/41 38/50/41 47/59/41 
f 40/52/42 47/59/42 48/60/42 
f 41/53/43 40/52/43 48/60/43 
f 41/53/44 48/60/44 49/61/44 
f 42/54/45 41/53/45 49/61/45 
f 42/54/46 49/61/46 50/62/46 
f 43/55/47 42/54/47 50/62/47 
f 43/55/48 50/62/48 51/63/48 
f 44/56/49 43/55/49 51/63/49 
f 44/56/50 51/63/50 52/64/50 
f 45/57/51 44/56/51 52/64/51 
f 45/57/52 52/64/52 53/65/52 
f 37/49/53 45/57/53 53/65/53 
f 37/49/54 53/65/54 46/58/54 
f 54/66/55 46/58/55 47/59/55 
f 55/67/56 53/65/56 46/58/56 
f 55/67/57 46/58/57 54/66/57 
f 2/3/58 1/2/58 34/1/58 
f 34/3/59 1/2/59 36/1/59 
f 34/1/60 35/3/60 2/2/60 
f 1/2/61 28/3/61 36/3/61 
f 1/2/62 30/1/62 28/3/62 
f 2/2/63 23/1/63 26/3/63 
f 2/2/64 35/2/64 23/1/64 
f 47/3/7 49/3/7 48/3/7 
f 47/3/3 46/2/3 49/3/3 
f 46/2/3 50/3/3 49/3/3 
f 46/2/7 53/2/7 50/3/7 
f 51/1/7 53/2/7 52/2/7 
f 51/1/3 50/3/3 53/2/3 
# 97 faces

