# 3ds Max Wavefront OBJ Exporter v0.97b - (c)2007 guruware
# File Created: 14.07.2011 05:23:06

mtllib Immunity.mtl

#
# object Box001
#

v  -0.1292 -0.0000 0.1415
v  -0.1788 -0.0000 0.0034
v  0.0089 -0.0000 0.0034
v  0.0089 -0.0000 0.1911
v  0.1966 -0.0000 0.0034
v  0.1470 -0.0000 0.1415
v  -0.1292 -0.0000 -0.1347
v  0.0089 -0.0000 -0.1843
v  0.1470 -0.0000 -0.1347
v  0.0089 0.9864 0.1445
v  0.1127 0.9864 0.1072
v  0.1500 0.9864 0.0034
v  -0.0949 0.9864 0.1072
v  0.1127 0.9864 -0.1004
v  0.0089 0.9864 -0.1377
v  -0.0949 0.9864 -0.1004
v  -0.1322 0.9864 0.0034
v  0.0089 0.0958 0.3561
v  -0.2505 0.0958 0.2628
v  -0.1988 0.0318 0.2111
v  0.0089 0.0318 0.2857
v  0.2166 0.0318 0.2111
v  0.2683 0.0958 0.2628
v  0.0089 0.2926 0.3561
v  0.0089 0.3575 0.2857
v  -0.1988 0.3575 0.2111
v  -0.2505 0.2926 0.2628
v  0.2166 0.3575 0.2111
v  0.2683 0.2926 0.2628
v  -0.1292 0.4079 0.1415
v  0.0089 0.4079 0.1911
v  0.0089 0.4327 0.1006
v  -0.0627 0.4327 0.0749
v  0.1470 0.4079 0.1415
v  0.0804 0.4327 0.0749
v  0.0089 0.7717 0.1006
v  -0.0627 0.7717 0.0749
v  0.0804 0.7717 0.0749
v  0.0089 0.7778 0.1440
v  -0.0945 0.7778 0.1068
v  0.1123 0.7778 0.1068
v  0.3616 0.0958 0.0034
v  0.2912 0.0318 0.0034
v  0.2166 0.0318 -0.2043
v  0.2683 0.0958 -0.2560
v  0.3616 0.2926 0.0034
v  0.2912 0.3575 0.0034
v  0.2166 0.3575 -0.2043
v  0.2683 0.2926 -0.2560
v  0.1966 0.4079 0.0034
v  0.1061 0.4327 0.0034
v  0.1470 0.4079 -0.1347
v  0.0804 0.4327 -0.0681
v  0.1061 0.7717 0.0034
v  0.0804 0.7717 -0.0681
v  0.1495 0.7778 0.0034
v  0.1123 0.7778 -0.1000
v  0.0089 0.0958 -0.3493
v  0.0089 0.0318 -0.2789
v  -0.1988 0.0318 -0.2043
v  -0.2505 0.0958 -0.2560
v  0.0089 0.2926 -0.3493
v  0.0089 0.3575 -0.2789
v  -0.1988 0.3575 -0.2043
v  -0.2505 0.2926 -0.2560
v  0.0089 0.4079 -0.1843
v  0.0089 0.4327 -0.0939
v  -0.1292 0.4079 -0.1347
v  -0.0627 0.4327 -0.0681
v  0.0089 0.7717 -0.0939
v  -0.0627 0.7717 -0.0681
v  0.0089 0.7778 -0.1372
v  -0.0945 0.7778 -0.1000
v  -0.3438 0.0958 0.0034
v  -0.2734 0.0318 0.0034
v  -0.3438 0.2926 0.0034
v  -0.2734 0.3575 0.0034
v  -0.1788 0.4079 0.0034
v  -0.0884 0.4327 0.0034
v  -0.0884 0.7717 0.0034
v  -0.1317 0.7778 0.0034
v  0.0089 0.1929 0.3780
v  -0.2667 0.1929 0.2790
v  0.2845 0.1929 0.2790
v  0.3835 0.1929 0.0034
v  0.2845 0.1929 -0.2722
v  0.0089 0.1929 -0.3713
v  -0.2667 0.1929 -0.2722
v  -0.3658 0.1929 0.0034
v  0.0089 0.8277 0.1761
v  -0.1182 0.8277 0.1304
v  -0.1177 0.7925 0.1299
v  0.0089 0.7925 0.1754
v  0.1359 0.8277 0.1304
v  0.1354 0.7925 0.1299
v  0.1816 0.8277 0.0034
v  0.1809 0.7925 0.0034
v  0.1359 0.8277 -0.1237
v  0.1354 0.7925 -0.1232
v  0.0089 0.8277 -0.1693
v  0.0089 0.7925 -0.1686
v  -0.1182 0.8277 -0.1237
v  -0.1177 0.7925 -0.1232
v  -0.1638 0.8277 0.0034
v  -0.1631 0.7925 0.0034
v  0.0089 0.8435 0.1453
v  -0.0955 0.8435 0.1078
v  0.1133 0.8435 0.1078
v  0.1508 0.8435 0.0034
v  0.1133 0.8435 -0.1010
v  0.0089 0.8435 -0.1385
v  -0.0955 0.8435 -0.1010
v  -0.1330 0.8435 0.0034
v  0.0089 0.8263 0.0970
v  -0.0600 0.8263 0.0723
v  0.0778 0.8263 0.0723
v  0.1025 0.8263 0.0034
v  0.0778 0.8263 -0.0655
v  0.0089 0.8263 -0.0903
v  -0.0600 0.8263 -0.0655
v  -0.0848 0.8263 0.0034
v  -0.1167 0.0156 0.1293
v  -0.1619 0.0156 0.0034
v  0.0092 0.0156 0.0034
v  0.0092 0.0156 0.1745
v  0.1804 0.0156 0.0034
v  0.1351 0.0156 0.1293
v  -0.1167 0.0156 -0.1225
v  0.0092 0.0156 -0.1678
v  0.1351 0.0156 -0.1225
v  0.0092 0.1029 0.3249
v  -0.2273 0.1029 0.2399
v  -0.1801 0.0445 0.1927
v  0.0092 0.0445 0.2608
v  0.1986 0.0445 0.1927
v  0.2458 0.1029 0.2399
v  0.3308 0.1029 0.0034
v  0.2666 0.0445 0.0034
v  0.1986 0.0445 -0.1860
v  0.2458 0.1029 -0.2332
v  0.0092 0.1029 -0.3182
v  0.0092 0.0445 -0.2540
v  -0.1801 0.0445 -0.1860
v  -0.2273 0.1029 -0.2332
v  -0.3123 0.1029 0.0034
v  -0.2482 0.0445 0.0034
v  0.0092 0.1915 0.3450
v  -0.2421 0.1915 0.2547
v  0.2605 0.1915 0.2547
v  0.3508 0.1915 0.0034
v  0.2605 0.1915 -0.2479
v  0.0092 0.1915 -0.3382
v  -0.2421 0.1915 -0.2479
v  -0.3324 0.1915 0.0034
v  -0.0615 0.1915 -0.1714
v  0.1840 0.2132 -0.0673
v  -0.1655 0.1681 0.0741
v  0.0799 0.1915 0.1781
# 158 vertices

vn -0.1395 -0.9804 0.1395
vn -0.1953 -0.9808 -0.0000
vn 0.0000 -1.0000 -0.0000
vn 0.0000 -0.9808 0.1953
vn 0.1953 -0.9808 -0.0000
vn 0.1395 -0.9804 0.1395
vn -0.1395 -0.9804 -0.1395
vn 0.0000 -0.9808 -0.1953
vn 0.1395 -0.9804 -0.1395
vn 0.0000 0.5273 0.8497
vn 0.6091 0.5078 0.6091
vn 0.8497 0.5273 -0.0000
vn -0.6091 0.5078 0.6091
vn 0.6091 0.5078 -0.6091
vn 0.0000 0.5273 -0.8497
vn -0.6091 0.5078 -0.6091
vn -0.8497 0.5273 -0.0000
vn 0.0000 -0.4769 0.8789
vn -0.6197 -0.4817 0.6197
vn -0.3770 -0.8460 0.3770
vn 0.0000 -0.8426 0.5386
vn 0.3770 -0.8460 0.3770
vn 0.6197 -0.4817 0.6197
vn 0.0000 0.4721 0.8816
vn 0.0000 0.8026 0.5966
vn -0.4149 0.8097 0.4149
vn -0.6215 0.4768 0.6215
vn 0.4149 0.8097 0.4149
vn 0.6215 0.4768 0.6215
vn -0.2708 0.9238 0.2708
vn 0.0000 0.9208 0.3901
vn 0.0000 0.6785 0.7346
vn -0.5012 0.7054 0.5012
vn 0.2708 0.9238 0.2708
vn 0.5012 0.7054 0.5012
vn 0.0000 -0.7344 0.6787
vn -0.4589 -0.7608 0.4589
vn 0.4589 -0.7608 0.4589
vn 0.0000 -0.9495 0.3139
vn -0.2199 -0.9504 0.2199
vn 0.2199 -0.9504 0.2199
vn 0.8789 -0.4769 -0.0000
vn 0.5386 -0.8426 -0.0000
vn 0.3770 -0.8460 -0.3770
vn 0.6197 -0.4817 -0.6197
vn 0.8816 0.4721 -0.0000
vn 0.5966 0.8026 -0.0000
vn 0.4149 0.8097 -0.4149
vn 0.6215 0.4768 -0.6215
vn 0.3901 0.9208 -0.0000
vn 0.7346 0.6785 -0.0000
vn 0.2708 0.9238 -0.2708
vn 0.5012 0.7054 -0.5012
vn 0.6787 -0.7344 -0.0000
vn 0.4589 -0.7608 -0.4589
vn 0.3139 -0.9495 -0.0000
vn 0.2199 -0.9504 -0.2199
vn 0.0000 -0.4769 -0.8789
vn 0.0000 -0.8426 -0.5386
vn -0.3770 -0.8460 -0.3770
vn -0.6197 -0.4817 -0.6197
vn 0.0000 0.4721 -0.8816
vn 0.0000 0.8026 -0.5966
vn -0.4149 0.8097 -0.4149
vn -0.6215 0.4768 -0.6215
vn 0.0000 0.9208 -0.3901
vn 0.0000 0.6785 -0.7346
vn -0.2708 0.9238 -0.2708
vn -0.5012 0.7054 -0.5012
vn 0.0000 -0.7344 -0.6787
vn -0.4589 -0.7608 -0.4589
vn 0.0000 -0.9495 -0.3139
vn -0.2199 -0.9504 -0.2199
vn -0.8789 -0.4769 -0.0000
vn -0.5386 -0.8426 -0.0000
vn -0.8816 0.4721 -0.0000
vn -0.5966 0.8026 -0.0000
vn -0.3901 0.9208 -0.0000
vn -0.7346 0.6785 -0.0000
vn -0.6787 -0.7344 -0.0000
vn -0.3139 -0.9495 -0.0000
vn 0.0000 -0.0027 1.0000
vn -0.7071 -0.0028 0.7071
vn 0.7071 -0.0028 0.7071
vn 1.0000 -0.0027 -0.0000
vn 0.7071 -0.0028 -0.7071
vn 0.0000 -0.0027 -1.0000
vn -0.7071 -0.0028 -0.7071
vn -1.0000 -0.0027 -0.0000
vn 0.0000 0.4683 0.8836
vn -0.6265 0.4636 0.6265
vn -0.6150 -0.4936 0.6150
vn 0.0000 -0.4986 0.8668
vn 0.6265 0.4636 0.6265
vn 0.6150 -0.4936 0.6150
vn 0.8836 0.4683 -0.0000
vn 0.8668 -0.4986 -0.0000
vn 0.6265 0.4636 -0.6265
vn 0.6150 -0.4936 -0.6150
vn 0.0000 0.4683 -0.8836
vn 0.0000 -0.4986 -0.8668
vn -0.6265 0.4636 -0.6265
vn -0.6150 -0.4936 -0.6150
vn -0.8836 0.4683 -0.0000
vn -0.8668 -0.4986 -0.0000
vn 0.0000 0.9885 0.1514
vn -0.1195 0.9856 0.1195
vn 0.1195 0.9856 0.1195
vn 0.1514 0.9885 -0.0000
vn 0.1195 0.9856 -0.1195
vn 0.0000 0.9885 -0.1514
vn -0.1195 0.9856 -0.1195
vn -0.1514 0.9885 -0.0000
vn 0.0000 0.8331 0.5531
vn -0.3642 0.8572 0.3642
vn 0.3642 0.8572 0.3642
vn 0.5531 0.8331 -0.0000
vn 0.3642 0.8572 -0.3642
vn 0.0000 0.8331 -0.5531
vn -0.3642 0.8572 -0.3642
vn -0.5531 0.8331 -0.0000
vn 0.0000 -0.2207 0.9753
vn -0.6883 -0.2291 0.6883
vn 0.6883 -0.2291 0.6883
vn 0.9753 -0.2207 -0.0000
vn 0.6883 -0.2291 -0.6883
vn 0.0000 -0.2207 -0.9753
vn -0.6883 -0.2291 -0.6883
vn -0.9753 -0.2207 -0.0000
vn -0.0748 0.9967 -0.0317
vn 0.0373 0.9939 -0.1037
vn 0.1516 0.9869 -0.0545
vn 0.0000 1.0000 -0.0000
vn 0.1629 0.9849 -0.0585
vn 0.0401 0.9929 -0.1116
vn -0.0805 0.9962 -0.0341
vn 0.0777 0.9897 0.1205
vn -0.1085 0.9929 0.0486
vn -0.1118 0.9929 0.0405
vn 0.0836 0.9880 0.1296
# 140 vertex normals

vt 0.3750 0.0005 0.5208
vt 0.2500 0.0005 0.5006
vt 0.5000 0.0005 0.0000
vt 0.5000 0.0005 0.5006
vt 0.7500 0.0005 0.5006
vt 0.6250 0.0005 0.5208
vt -0.7500 0.0005 0.5006
vt 0.1250 0.0005 0.5208
vt -0.0000 0.0005 0.5006
vt -0.5000 0.0005 0.0000
vt 1.0000 0.0005 0.5006
vt 0.8750 0.0005 0.5208
vt 0.5000 0.3117 0.0000
vt 0.6385 0.3615 0.0000
vt 0.6883 0.5000 0.0000
vt 0.3615 0.3615 0.0000
vt 0.6385 0.6385 0.0000
vt 0.5000 0.6883 0.0000
vt 0.3615 0.6385 0.0000
vt 0.3117 0.5000 0.0000
vt 0.5000 0.0975 0.9404
vt 0.3750 0.0975 0.9783
vt 0.3750 0.0327 0.7832
vt 0.5000 0.0327 0.7528
vt 0.6250 0.0327 0.7832
vt 0.6250 0.0975 0.9783
vt 0.5000 0.2969 0.9404
vt 0.5000 0.3625 0.7528
vt 0.3750 0.3625 0.7832
vt 0.3750 0.2969 0.9783
vt 0.6250 0.3625 0.7832
vt 0.6250 0.2969 0.9783
vt 0.3750 0.4136 0.5208
vt 0.5000 0.4136 0.5006
vt 0.5000 0.4387 0.2593
vt 0.3750 0.4387 0.2697
vt 0.6250 0.4136 0.5208
vt 0.6250 0.4387 0.2697
vt 0.5000 0.7820 0.2593
vt 0.3750 0.7820 0.2697
vt 0.6250 0.7820 0.2697
vt 0.5000 0.7883 0.3749
vt 0.3750 0.7883 0.3900
vt 0.6250 0.7883 0.3900
vt 0.7500 0.0975 0.9404
vt 0.7500 0.0327 0.7528
vt 0.8750 0.0327 0.7832
vt 0.8750 0.0975 0.9783
vt 0.7500 0.2969 0.9404
vt 0.7500 0.3625 0.7528
vt 0.8750 0.3625 0.7832
vt 0.8750 0.2969 0.9783
vt 0.7500 0.4136 0.5006
vt 0.7500 0.4387 0.2593
vt 0.8750 0.4136 0.5208
vt 0.8750 0.4387 0.2697
vt 0.7500 0.7820 0.2593
vt 0.8750 0.7820 0.2697
vt 0.7500 0.7883 0.3749
vt 0.8750 0.7883 0.3900
vt 1.0000 0.0975 0.9404
vt 1.0000 0.0327 0.7528
vt 0.1250 0.0327 0.7832
vt 0.1250 0.0975 0.9783
vt -0.0000 0.0975 0.9404
vt -0.0000 0.0327 0.7528
vt 1.0000 0.2969 0.9404
vt 1.0000 0.3625 0.7528
vt 0.1250 0.3625 0.7832
vt -0.0000 0.3625 0.7528
vt -0.0000 0.2969 0.9404
vt 0.1250 0.2969 0.9783
vt 1.0000 0.4136 0.5006
vt 1.0000 0.4387 0.2593
vt 1.1250 0.4136 0.5208
vt 1.1250 0.4387 0.2697
vt 1.0000 0.7820 0.2593
vt 1.1250 0.7820 0.2697
vt 1.0000 0.7883 0.3749
vt 1.1250 0.7883 0.3900
vt 0.2500 0.0975 0.9404
vt 0.2500 0.0327 0.7528
vt 0.2500 0.2969 0.9404
vt 0.2500 0.3625 0.7528
vt 0.1250 0.4136 0.5208
vt 0.2500 0.4136 0.5006
vt 0.2500 0.4387 0.2593
vt 0.1250 0.4387 0.2697
vt 0.2500 0.7820 0.2593
vt 0.1250 0.7820 0.2697
vt 0.2500 0.7883 0.3749
vt 0.1250 0.7883 0.3900
vt 0.5000 0.1959 0.9990
vt 0.3750 0.1959 1.0393
vt 0.6250 0.1959 1.0393
vt 0.7500 0.1959 0.9990
vt 0.8750 0.1959 1.0393
vt 1.0000 0.1959 0.9990
vt 0.1250 0.1959 1.0393
vt -0.0000 0.1959 0.9990
vt 1.1250 0.0005 0.5208
vt 1.1250 0.0327 0.7832
vt -0.0000 0.4136 0.5006
vt 1.1250 0.1959 1.0393
vt 1.1250 0.2969 0.9783
vt 0.2500 0.1959 0.9990
vt 0.5000 0.8388 0.4605
vt 0.3750 0.8388 0.4791
vt 0.3750 0.8031 0.4772
vt 0.5000 0.8031 0.4587
vt 0.6250 0.8388 0.4791
vt 0.6250 0.8031 0.4772
vt 0.7500 0.8388 0.4605
vt 0.7500 0.8031 0.4587
vt 0.8750 0.8388 0.4791
vt 0.8750 0.8031 0.4772
vt 1.0000 0.8388 0.4605
vt 1.0000 0.8031 0.4587
vt 0.1250 0.8388 0.4791
vt -0.0000 0.8388 0.4605
vt -0.0000 0.8031 0.4587
vt 0.1250 0.8031 0.4772
vt 0.2500 0.8388 0.4605
vt 0.2500 0.8031 0.4587
vt 0.5000 0.8548 0.3784
vt 0.3750 0.8548 0.3936
vt 0.6250 0.8548 0.3936
vt 0.7500 0.8548 0.3784
vt 0.8750 0.8548 0.3936
vt 1.0000 0.8548 0.3784
vt 0.1250 0.8548 0.3936
vt -0.0000 0.8548 0.3784
vt 1.1250 0.8031 0.4772
vt 0.2500 0.8548 0.3784
vt 0.5000 0.8374 0.2497
vt 0.3750 0.8374 0.2598
vt 0.6250 0.8374 0.2598
vt 0.7500 0.8374 0.2497
vt 0.8750 0.8374 0.2598
vt 1.0000 0.8374 0.2497
vt 1.1250 0.8548 0.3936
vt 1.1250 0.8374 0.2598
vt 0.2500 0.8374 0.2497
vt 0.1250 0.8374 0.2598
vt 0.5000 0.9995 0.3763
vt 0.3750 0.9995 0.3914
vt 0.6250 0.9995 0.3914
vt 0.7500 0.9995 0.3763
vt 0.8750 0.9995 0.3914
vt 1.0000 0.9995 0.3763
vt 1.1250 0.9995 0.3914
vt 0.2500 0.9995 0.3763
vt 0.1250 0.9995 0.3914
vt 0.8241 0.1959 1.0103
vt 0.7608 0.1959 1.0270
vt 0.5654 0.1959 1.0270
vt 0.6055 0.1959 1.0103
# 157 texture coords

g Box001
usemtl glass
f 1/1/1 2/2/2 3/3/3 
f 3/3/3 4/4/4 1/1/1 
f 4/4/4 3/3/3 5/5/5 
f 5/5/5 6/6/6 4/4/4 
f 2/7/2 7/8/7 8/9/8 
f 8/9/8 3/10/3 2/7/2 
f 3/3/3 8/11/8 9/12/9 
f 9/12/9 5/5/5 3/3/3 
usemtl 01___corcho
f 10/13/10 11/14/11 12/15/12 
f 13/16/13 10/13/10 12/15/12 
f 12/15/12 14/17/14 15/18/15 
f 15/18/15 16/19/16 17/20/17 
f 12/15/12 15/18/15 17/20/17 
f 13/16/13 12/15/12 17/20/17 
usemtl glass
f 18/21/18 19/22/19 20/23/20 
f 20/23/20 21/24/21 18/21/18 
f 22/25/22 23/26/23 18/21/18 
f 18/21/18 21/24/21 22/25/22 
f 24/27/24 25/28/25 26/29/26 
f 26/29/26 27/30/27 24/27/24 
f 28/31/28 25/28/25 24/27/24 
f 24/27/24 29/32/29 28/31/28 
f 30/33/30 31/34/31 32/35/32 
f 32/35/32 33/36/33 30/33/30 
f 31/34/31 34/37/34 35/38/35 
f 35/38/35 32/35/32 31/34/31 
f 33/36/33 32/35/32 36/39/36 
f 36/39/36 37/40/37 33/36/33 
f 32/35/32 35/38/35 38/41/38 
f 38/41/38 36/39/36 32/35/32 
f 37/40/37 36/39/36 39/42/39 
f 39/42/39 40/43/40 37/40/37 
f 38/41/38 41/44/41 39/42/39 
f 39/42/39 36/39/36 38/41/38 
f 42/45/42 23/26/23 22/25/22 
f 22/25/22 43/46/43 42/45/42 
f 44/47/44 45/48/45 42/45/42 
f 42/45/42 43/46/43 44/47/44 
f 46/49/46 47/50/47 28/31/28 
f 28/31/28 29/32/29 46/49/46 
f 48/51/48 47/50/47 46/49/46 
f 46/49/46 49/52/49 48/51/48 
f 34/37/34 50/53/50 51/54/51 
f 51/54/51 35/38/35 34/37/34 
f 50/53/50 52/55/52 53/56/53 
f 53/56/53 51/54/51 50/53/50 
f 35/38/35 51/54/51 54/57/54 
f 54/57/54 38/41/38 35/38/35 
f 51/54/51 53/56/53 55/58/55 
f 55/58/55 54/57/54 51/54/51 
f 38/41/38 54/57/54 56/59/56 
f 56/59/56 41/44/41 38/41/38 
f 55/58/55 57/60/57 56/59/56 
f 56/59/56 54/57/54 55/58/55 
f 58/61/58 45/48/45 44/47/44 
f 44/47/44 59/62/59 58/61/58 
f 60/63/60 61/64/61 58/65/58 
f 58/65/58 59/66/59 60/63/60 
f 62/67/62 63/68/63 48/51/48 
f 48/51/48 49/52/49 62/67/62 
f 64/69/64 63/70/63 62/71/62 
f 62/71/62 65/72/65 64/69/64 
f 52/55/52 66/73/66 67/74/67 
f 67/74/67 53/56/53 52/55/52 
f 66/73/66 68/75/68 69/76/69 
f 69/76/69 67/74/67 66/73/66 
f 53/56/53 67/74/67 70/77/70 
f 70/77/70 55/58/55 53/56/53 
f 67/74/67 69/76/69 71/78/71 
f 71/78/71 70/77/70 67/74/67 
f 55/58/55 70/77/70 72/79/72 
f 72/79/72 57/60/57 55/58/55 
f 71/78/71 73/80/73 72/79/72 
f 72/79/72 70/77/70 71/78/71 
f 74/81/74 61/64/61 60/63/60 
f 60/63/60 75/82/75 74/81/74 
f 20/23/20 19/22/19 74/81/74 
f 74/81/74 75/82/75 20/23/20 
f 76/83/76 77/84/77 64/69/64 
f 64/69/64 65/72/65 76/83/76 
f 26/29/26 77/84/77 76/83/76 
f 76/83/76 27/30/27 26/29/26 
f 68/85/68 78/86/78 79/87/79 
f 79/87/79 69/88/69 68/85/68 
f 78/86/78 30/33/30 33/36/33 
f 33/36/33 79/87/79 78/86/78 
f 69/88/69 79/87/79 80/89/80 
f 80/89/80 71/90/71 69/88/69 
f 79/87/79 33/36/33 37/40/37 
f 37/40/37 80/89/80 79/87/79 
f 71/90/71 80/89/80 81/91/81 
f 81/91/81 73/92/73 71/90/71 
f 37/40/37 40/43/40 81/91/81 
f 81/91/81 80/89/80 37/40/37 
f 82/93/82 83/94/83 19/22/19 
f 19/22/19 18/21/18 82/93/82 
f 1/1/1 4/4/4 21/24/21 
f 21/24/21 20/23/20 1/1/1 
f 23/26/23 84/95/84 82/93/82 
f 82/93/82 18/21/18 23/26/23 
f 21/24/21 4/4/4 6/6/6 
f 6/6/6 22/25/22 21/24/21 
f 25/28/25 31/34/31 30/33/30 
f 30/33/30 26/29/26 25/28/25 
f 27/30/27 83/94/83 82/93/82 
f 82/93/82 24/27/24 27/30/27 
f 34/37/34 31/34/31 25/28/25 
f 25/28/25 28/31/28 34/37/34 
f 82/93/82 84/95/84 29/32/29 
f 29/32/29 24/27/24 82/93/82 
f 85/96/85 84/95/84 23/26/23 
f 23/26/23 42/45/42 85/96/85 
f 6/6/6 5/5/5 43/46/43 
f 43/46/43 22/25/22 6/6/6 
f 45/48/45 86/97/86 85/96/85 
f 85/96/85 42/45/42 45/48/45 
f 43/46/43 5/5/5 9/12/9 
f 9/12/9 44/47/44 43/46/43 
f 47/50/47 50/53/50 34/37/34 
f 34/37/34 28/31/28 47/50/47 
f 29/32/29 84/95/84 85/96/85 
f 85/96/85 46/49/46 29/32/29 
f 52/55/52 50/53/50 47/50/47 
f 47/50/47 48/51/48 52/55/52 
f 85/96/85 86/97/86 49/52/49 
f 49/52/49 46/49/46 85/96/85 
f 87/98/87 86/97/86 45/48/45 
f 45/48/45 58/61/58 87/98/87 
f 9/12/9 8/11/8 59/62/59 
f 59/62/59 44/47/44 9/12/9 
f 61/64/61 88/99/88 87/100/87 
f 87/100/87 58/65/58 61/64/61 
f 59/62/59 8/11/8 7/101/7 
f 7/101/7 60/102/60 59/62/59 
f 63/68/63 66/73/66 52/55/52 
f 52/55/52 48/51/48 63/68/63 
f 49/52/49 86/97/86 87/98/87 
f 87/98/87 62/67/62 49/52/49 
f 68/85/68 66/103/66 63/70/63 
f 63/70/63 64/69/64 68/85/68 
f 87/98/87 88/104/88 65/105/65 
f 65/105/65 62/67/62 87/98/87 
f 89/106/89 88/99/88 61/64/61 
f 61/64/61 74/81/74 89/106/89 
f 7/8/7 2/2/2 75/82/75 
f 75/82/75 60/63/60 7/8/7 
f 19/22/19 83/94/83 89/106/89 
f 89/106/89 74/81/74 19/22/19 
f 75/82/75 2/2/2 1/1/1 
f 1/1/1 20/23/20 75/82/75 
f 77/84/77 78/86/78 68/85/68 
f 68/85/68 64/69/64 77/84/77 
f 65/72/65 88/99/88 89/106/89 
f 89/106/89 76/83/76 65/72/65 
f 30/33/30 78/86/78 77/84/77 
f 77/84/77 26/29/26 30/33/30 
f 89/106/89 83/94/83 27/30/27 
f 27/30/27 76/83/76 89/106/89 
f 90/107/90 91/108/91 92/109/92 
f 92/109/92 93/110/93 90/107/90 
f 94/111/94 90/107/90 93/110/93 
f 93/110/93 95/112/95 94/111/94 
f 96/113/96 94/111/94 95/112/95 
f 95/112/95 97/114/97 96/113/96 
f 98/115/98 96/113/96 97/114/97 
f 97/114/97 99/116/99 98/115/98 
f 100/117/100 98/115/98 99/116/99 
f 99/116/99 101/118/101 100/117/100 
f 102/119/102 100/120/100 101/121/101 
f 101/121/101 103/122/103 102/119/102 
f 104/123/104 102/119/102 103/122/103 
f 103/122/103 105/124/105 104/123/104 
f 91/108/91 104/123/104 105/124/105 
f 105/124/105 92/109/92 91/108/91 
f 106/125/106 107/126/107 91/108/91 
f 91/108/91 90/107/90 106/125/106 
f 40/43/40 39/42/39 93/110/93 
f 93/110/93 92/109/92 40/43/40 
f 108/127/108 106/125/106 90/107/90 
f 90/107/90 94/111/94 108/127/108 
f 39/42/39 41/44/41 95/112/95 
f 95/112/95 93/110/93 39/42/39 
f 109/128/109 108/127/108 94/111/94 
f 94/111/94 96/113/96 109/128/109 
f 41/44/41 56/59/56 97/114/97 
f 97/114/97 95/112/95 41/44/41 
f 110/129/110 109/128/109 96/113/96 
f 96/113/96 98/115/98 110/129/110 
f 56/59/56 57/60/57 99/116/99 
f 99/116/99 97/114/97 56/59/56 
f 111/130/111 110/129/110 98/115/98 
f 98/115/98 100/117/100 111/130/111 
f 57/60/57 72/79/72 101/118/101 
f 101/118/101 99/116/99 57/60/57 
f 112/131/112 111/132/111 100/120/100 
f 100/120/100 102/119/102 112/131/112 
f 72/79/72 73/80/73 103/133/103 
f 103/133/103 101/118/101 72/79/72 
f 113/134/113 112/131/112 102/119/102 
f 102/119/102 104/123/104 113/134/113 
f 73/92/73 81/91/81 105/124/105 
f 105/124/105 103/122/103 73/92/73 
f 107/126/107 113/134/113 104/123/104 
f 104/123/104 91/108/91 107/126/107 
f 81/91/81 40/43/40 92/109/92 
f 92/109/92 105/124/105 81/91/81 
f 107/126/107 106/125/106 114/135/114 
f 114/135/114 115/136/115 107/126/107 
f 106/125/106 108/127/108 116/137/116 
f 116/137/116 114/135/114 106/125/106 
f 108/127/108 109/128/109 117/138/117 
f 117/138/117 116/137/116 108/127/108 
f 109/128/109 110/129/110 118/139/118 
f 118/139/118 117/138/117 109/128/109 
f 110/129/110 111/130/111 119/140/119 
f 119/140/119 118/139/118 110/129/110 
f 111/130/111 112/141/112 120/142/120 
f 120/142/120 119/140/119 111/130/111 
f 112/131/112 113/134/113 121/143/121 
f 121/143/121 120/144/120 112/131/112 
f 113/134/113 107/126/107 115/136/115 
f 115/136/115 121/143/121 113/134/113 
usemtl 01___corcho
f 115/136/115 114/135/114 10/145/10 
f 10/145/10 13/146/13 115/136/115 
f 114/135/114 116/137/116 11/147/11 
f 11/147/11 10/145/10 114/135/114 
f 116/137/116 117/138/117 12/148/12 
f 12/148/12 11/147/11 116/137/116 
f 117/138/117 118/139/118 14/149/14 
f 14/149/14 12/148/12 117/138/117 
f 118/139/118 119/140/119 15/150/15 
f 15/150/15 14/149/14 118/139/118 
f 119/140/119 120/142/120 16/151/16 
f 16/151/16 15/150/15 119/140/119 
f 120/144/120 121/143/121 17/152/17 
f 17/152/17 16/153/16 120/144/120 
f 121/143/121 115/136/115 13/146/13 
f 13/146/13 17/152/17 121/143/121 
usemtl Material__51
f 122/1/1 123/2/2 124/3/3 
f 124/3/3 125/4/4 122/1/1 
f 125/4/4 124/3/3 126/5/5 
f 126/5/5 127/6/6 125/4/4 
f 123/7/2 128/8/7 129/9/8 
f 129/9/8 124/10/3 123/7/2 
f 124/3/3 129/11/8 130/12/9 
f 130/12/9 126/5/5 124/3/3 
f 131/21/18 132/22/19 133/23/20 
f 133/23/20 134/24/21 131/21/18 
f 135/25/22 136/26/23 131/21/18 
f 131/21/18 134/24/21 135/25/22 
f 137/45/42 136/26/23 135/25/22 
f 135/25/22 138/46/43 137/45/42 
f 139/47/44 140/48/45 137/45/42 
f 137/45/42 138/46/43 139/47/44 
f 141/61/58 140/48/45 139/47/44 
f 139/47/44 142/62/59 141/61/58 
f 143/63/60 144/64/61 141/65/58 
f 141/65/58 142/66/59 143/63/60 
f 145/81/74 144/64/61 143/63/60 
f 143/63/60 146/82/75 145/81/74 
f 133/23/20 132/22/19 145/81/74 
f 145/81/74 146/82/75 133/23/20 
f 147/93/122 148/94/123 132/22/19 
f 132/22/19 131/21/18 147/93/122 
f 122/1/1 125/4/4 134/24/21 
f 134/24/21 133/23/20 122/1/1 
f 136/26/23 149/95/124 147/93/122 
f 147/93/122 131/21/18 136/26/23 
f 134/24/21 125/4/4 127/6/6 
f 127/6/6 135/25/22 134/24/21 
f 150/96/125 149/95/124 136/26/23 
f 136/26/23 137/45/42 150/96/125 
f 127/6/6 126/5/5 138/46/43 
f 138/46/43 135/25/22 127/6/6 
f 140/48/45 151/97/126 150/96/125 
f 150/96/125 137/45/42 140/48/45 
f 138/46/43 126/5/5 130/12/9 
f 130/12/9 139/47/44 138/46/43 
f 152/98/127 151/97/126 140/48/45 
f 140/48/45 141/61/58 152/98/127 
f 130/12/9 129/11/8 142/62/59 
f 142/62/59 139/47/44 130/12/9 
f 144/64/61 153/99/128 152/100/127 
f 152/100/127 141/65/58 144/64/61 
f 142/62/59 129/11/8 128/101/7 
f 128/101/7 143/102/60 142/62/59 
f 154/106/129 153/99/128 144/64/61 
f 144/64/61 145/81/74 154/106/129 
f 128/8/7 123/2/2 146/82/75 
f 146/82/75 143/63/60 128/8/7 
f 132/22/19 148/94/123 154/106/129 
f 154/106/129 145/81/74 132/22/19 
f 146/82/75 123/2/2 122/1/1 
f 122/1/1 133/23/20 146/82/75 
f 152/98/130 155/154/130 156/155/130 
f 156/155/131 151/97/131 152/98/131 
f 151/97/132 156/155/132 150/96/132 
f 155/154/133 152/98/133 153/99/133 
f 154/106/134 148/94/134 157/156/134 
f 157/156/135 148/94/135 147/93/135 
f 147/93/136 158/157/136 157/156/136 
f 158/157/133 147/93/133 149/95/133 
f 150/96/137 156/155/137 158/157/137 
f 158/157/133 149/95/133 150/96/133 
f 156/155/138 155/154/138 157/156/138 
f 157/156/139 158/157/139 156/155/139 
f 154/106/140 157/156/140 155/154/140 
f 155/154/133 153/99/133 154/106/133 
# 308 faces

