# 3ds Max Wavefront OBJ Exporter v0.97b - (c)2007 guruware
# File Created: 03.07.2011 00:20:18

mtllib Mushroom.mtl

#
# object Cylinder001
#

v  1.3913 0.0087 0.0111
v  0.8648 0.0087 -1.0822
v  1.1179 2.6348 -1.3996
v  1.7972 2.6348 0.0111
v  -0.3183 0.0087 -1.3523
v  -0.4086 2.6348 -1.7480
v  -1.2671 0.0087 -0.5956
v  -1.6328 2.6348 -0.7717
v  -1.2671 0.0087 0.6179
v  -1.6328 2.6348 0.7940
v  -0.3183 0.0087 1.3745
v  -0.4086 2.6348 1.7702
v  0.8648 0.0087 1.1045
v  1.1179 2.6348 1.4218
v  0.7118 5.2609 -0.8903
v  1.1459 5.2609 0.0111
v  -0.2637 5.2609 -1.1130
v  -1.0459 5.2609 -0.4892
v  -1.0459 5.2609 0.5114
v  -0.2637 5.2609 1.1352
v  0.7118 5.2609 0.9126
# 21 vertices

vn 0.9883 -0.1527 0.0000
vn 0.6162 -0.1527 -0.7727
vn 0.6229 0.0426 -0.7811
vn 0.9991 0.0426 -0.0000
vn -0.2199 -0.1527 -0.9635
vn -0.2223 0.0426 -0.9740
vn -0.8904 -0.1527 -0.4288
vn -0.9002 0.0426 -0.4335
vn -0.8904 -0.1527 0.4288
vn -0.9002 0.0426 0.4335
vn -0.2199 -0.1527 0.9635
vn -0.2223 0.0426 0.9740
vn 0.6162 -0.1527 0.7727
vn 0.6229 0.0426 0.7811
vn 0.6052 0.2407 -0.7588
vn 0.9706 0.2407 0.0000
vn -0.2160 0.2407 -0.9463
vn -0.8745 0.2407 -0.4211
vn -0.8745 0.2407 0.4211
vn -0.2160 0.2407 0.9463
vn 0.6052 0.2407 0.7588
vn 0.0000 -1.0000 -0.0000
vn 0.0000 1.0000 -0.0000
# 23 vertex normals

vt 0.7500 0.0000 1.0000
vt 0.8929 0.0000 1.0000
vt 0.8929 0.5000 1.0000
vt 0.7500 0.5000 1.0000
vt 1.0357 0.0000 1.0000
vt 1.0357 0.5000 1.0000
vt 0.0357 0.0000 1.0000
vt 0.1786 0.0000 1.0000
vt 0.1786 0.5000 1.0000
vt 0.0357 0.5000 1.0000
vt 0.3214 0.0000 1.0000
vt 0.3214 0.5000 1.0000
vt 0.4643 0.0000 1.0000
vt 0.4643 0.5000 1.0000
vt 0.6071 0.0000 1.0000
vt 0.6071 0.5000 1.0000
vt 0.8929 1.0000 1.0000
vt 0.7500 1.0000 1.0000
vt 1.0357 1.0000 1.0000
vt 0.1786 1.0000 1.0000
vt 0.0357 1.0000 1.0000
vt 0.3214 1.0000 1.0000
vt 0.4643 1.0000 1.0000
vt 0.6071 1.0000 1.0000
vt 0.9875 0.3887 -0.2500
vt 0.7169 0.0495 -0.2500
vt 0.2831 0.0495 -0.2500
vt 0.0125 0.3887 -0.2500
vt 0.1091 0.8117 -0.2500
vt 0.5000 1.0000 -0.2500
vt 0.8909 0.8117 -0.2500
vt 0.1091 0.8117 0.2500
vt 0.0125 0.3887 0.2500
vt 0.2831 0.0495 0.2500
vt 0.7169 0.0495 0.2500
vt 0.9875 0.3887 0.2500
vt 0.8909 0.8117 0.2500
vt 0.5000 1.0000 0.2500
# 38 texture coords

g Cylinder001
usemtl 07___Default
f 1/1/1 2/2/2 3/3/3 
f 3/3/3 4/4/4 1/1/1 
f 2/2/2 5/5/5 6/6/6 
f 6/6/6 3/3/3 2/2/2 
f 5/7/5 7/8/7 8/9/8 
f 8/9/8 6/10/6 5/7/5 
f 7/8/7 9/11/9 10/12/10 
f 10/12/10 8/9/8 7/8/7 
f 9/11/9 11/13/11 12/14/12 
f 12/14/12 10/12/10 9/11/9 
f 11/13/11 13/15/13 14/16/14 
f 14/16/14 12/14/12 11/13/11 
f 13/15/13 1/1/1 4/4/4 
f 4/4/4 14/16/14 13/15/13 
f 4/4/4 3/3/3 15/17/15 
f 15/17/15 16/18/16 4/4/4 
f 3/3/3 6/6/6 17/19/17 
f 17/19/17 15/17/15 3/3/3 
f 6/10/6 8/9/8 18/20/18 
f 18/20/18 17/21/17 6/10/6 
f 8/9/8 10/12/10 19/22/19 
f 19/22/19 18/20/18 8/9/8 
f 10/12/10 12/14/12 20/23/20 
f 20/23/20 19/22/19 10/12/10 
f 12/14/12 14/16/14 21/24/21 
f 21/24/21 20/23/20 12/14/12 
f 14/16/14 4/4/4 16/18/16 
f 16/18/16 21/24/21 14/16/14 
f 11/25/22 9/26/22 7/27/22 
f 7/27/22 5/28/22 2/29/22 
f 7/27/22 2/29/22 1/30/22 
f 11/25/22 7/27/22 1/30/22 
f 13/31/22 11/25/22 1/30/22 
f 15/32/23 17/33/23 18/34/23 
f 18/34/23 19/35/23 20/36/23 
f 18/34/23 20/36/23 21/37/23 
f 15/32/23 18/34/23 21/37/23 
f 16/38/23 15/32/23 21/37/23 
# 38 faces

#
# object Sphere001
#

v  -0.0072 5.0148 -0.0065
v  -0.0072 5.4130 1.5461
v  -1.0828 5.4124 1.2493
v  -1.7475 5.4110 0.4725
v  -1.7475 5.4093 -0.4878
v  -1.0828 5.4079 -1.2647
v  -0.0072 5.4073 -1.5614
v  1.0683 5.4079 -1.2647
v  1.7331 5.4093 -0.4878
v  1.7331 5.4110 0.4725
v  1.0683 5.4124 1.2493
v  -1.7475 4.9131 2.4531
v  -0.0035 4.9201 3.0001
v  -2.7924 4.9170 0.9165
v  -2.7924 4.9142 -0.9471
v  -1.7271 4.9119 -2.4547
v  -0.0035 4.9110 -3.0306
v  1.7202 4.9119 -2.4547
v  2.7854 4.9142 -0.9471
v  2.7854 4.9170 0.9165
v  1.7202 4.9192 2.4242
v  -1.2793 5.9768 1.7858
v  -0.0040 5.9745 2.1857
v  -2.0432 5.9731 0.6623
v  -2.0432 5.9719 -0.7004
v  -1.2643 5.9710 -1.8027
v  -0.0040 5.9706 -2.2238
v  1.2563 5.9710 -1.8027
v  2.0352 5.9719 -0.7004
v  2.0352 5.9731 0.6623
v  1.2563 5.9741 1.7646
v  -0.9545 7.3448 1.0895
v  -0.0072 7.3452 1.3508
v  -1.5399 7.3435 0.4053
v  -1.5399 7.3420 -0.4405
v  -0.9545 7.3407 -1.1247
v  -0.0072 7.3403 -1.3860
v  0.9400 7.3407 -1.1247
v  1.5255 7.3420 -0.4405
v  1.5255 7.3435 0.4053
v  0.9400 7.3448 1.0895
v  -0.0072 7.8427 -0.0188
# 42 vertices

vn -0.0679 -0.9664 0.2478
vn -0.1786 -0.9717 0.1546
vn -0.2215 -0.9752 0.0018
vn -0.1786 -0.9723 -0.1510
vn -0.0678 -0.9674 -0.2442
vn 0.0678 -0.9674 -0.2442
vn 0.1786 -0.9723 -0.1510
vn 0.2215 -0.9752 0.0018
vn 0.1786 -0.9717 0.1546
vn 0.0679 -0.9664 0.2478
vn 0.0934 -0.9369 -0.3370
vn 0.1040 -0.9419 -0.3195
vn 0.3160 -0.9099 -0.2688
vn 0.3100 -0.9265 -0.2131
vn 0.4276 -0.9040 0.0016
vn 0.4279 -0.9038 0.0014
vn 0.2765 -0.9310 0.2383
vn 0.3301 -0.9143 0.2346
vn 0.0875 -0.9437 0.3190
vn 0.1101 -0.9372 0.3310
vn -0.0931 -0.9361 0.3391
vn -0.1058 -0.9422 0.3180
vn -0.3117 -0.9115 0.2684
vn -0.3067 -0.9265 0.2181
vn -0.4255 -0.9049 0.0016
vn -0.4252 -0.9051 0.0014
vn -0.2783 -0.9310 -0.2364
vn -0.3312 -0.9145 -0.2326
vn -0.0886 -0.9434 -0.3196
vn -0.1112 -0.9369 -0.3316
vn -0.2437 0.5902 0.7696
vn -0.2399 0.5933 0.7684
vn -0.6699 0.5852 0.4570
vn -0.6731 0.5823 0.4558
vn -0.8160 0.5781 -0.0009
vn -0.8157 0.5785 -0.0005
vn -0.6648 0.5802 -0.4706
vn -0.6648 0.5805 -0.4702
vn -0.2566 0.5855 -0.7690
vn -0.2567 0.5856 -0.7689
vn 0.2566 0.5857 -0.7688
vn 0.2567 0.5856 -0.7689
vn 0.6644 0.5809 -0.4703
vn 0.6647 0.5806 -0.4702
vn 0.8153 0.5790 -0.0009
vn 0.8156 0.5786 -0.0005
vn 0.6633 0.5841 0.4678
vn 0.6633 0.5839 0.4681
vn 0.2559 0.5910 0.7650
vn 0.2558 0.5909 0.7651
vn -0.2607 0.4864 0.8340
vn -0.2296 0.5059 0.8315
vn -0.7659 0.3787 0.5196
vn -0.6770 0.4551 0.5784
vn -0.9387 0.3449 -0.0003
vn -0.9387 0.3446 -0.0006
vn -0.7388 0.4257 -0.5224
vn -0.7046 0.3733 -0.6035
vn -0.2741 0.5014 -0.8207
vn -0.2341 0.4733 -0.8492
vn 0.2784 0.4770 -0.8337
vn 0.2288 0.5083 -0.8302
vn 0.7546 0.3820 -0.5335
vn 0.6799 0.4454 -0.5826
vn 0.9373 0.3486 -0.0003
vn 0.9372 0.3488 -0.0006
vn 0.7386 0.4273 0.5215
vn 0.7047 0.3751 0.6023
vn 0.2744 0.5007 0.8210
vn 0.2346 0.4726 0.8495
vn -0.0942 0.9357 0.3399
vn -0.2493 0.9450 0.2116
vn -0.3101 0.9507 -0.0017
vn -0.2493 0.9442 -0.2151
vn -0.0943 0.9344 -0.3434
vn 0.0943 0.9344 -0.3434
vn 0.2493 0.9442 -0.2151
vn 0.3101 0.9507 -0.0017
vn 0.2493 0.9450 0.2116
vn 0.0942 0.9357 0.3399
# 80 vertex normals

vt 0.0000 1.0000 0.0000
vt 0.0000 0.8000 0.0000
vt 0.1000 0.8000 0.0000
vt 0.1000 1.0000 0.0000
vt 0.2000 0.8000 0.0000
vt 0.2000 1.0000 0.0000
vt 0.3000 0.8000 0.0000
vt 0.3000 1.0000 0.0000
vt 0.4000 0.8000 0.0000
vt 0.4000 1.0000 0.0000
vt 0.5000 0.8000 0.0000
vt 0.5000 1.0000 0.0000
vt 0.6000 0.8000 0.0000
vt 0.6000 1.0000 0.0000
vt 0.7000 0.8000 0.0000
vt 0.7000 1.0000 0.0000
vt 0.8000 0.8000 0.0000
vt 0.8000 1.0000 0.0000
vt 0.9000 0.8000 0.0000
vt 0.9000 1.0000 0.0000
vt 1.0000 0.8000 0.0000
vt 0.1000 0.6000 0.0000
vt 0.0000 0.6000 0.0000
vt 0.2000 0.6000 0.0000
vt 0.3000 0.6000 0.0000
vt 0.4000 0.6000 0.0000
vt 0.5000 0.6000 0.0000
vt 0.6000 0.6000 0.0000
vt 0.7000 0.6000 0.0000
vt 0.8000 0.6000 0.0000
vt 0.9000 0.6000 0.0000
vt 1.0000 0.6000 0.0000
vt 0.1000 0.4000 0.0000
vt 0.0000 0.4000 0.0000
vt 0.2000 0.4000 0.0000
vt 0.3000 0.4000 0.0000
vt 0.4000 0.4000 0.0000
vt 0.5000 0.4000 0.0000
vt 0.6000 0.4000 0.0000
vt 0.7000 0.4000 0.0000
vt 0.8000 0.4000 0.0000
vt 0.9000 0.4000 0.0000
vt 1.0000 0.4000 0.0000
vt 0.1000 0.2000 0.0000
vt 0.0000 0.2000 0.0000
vt 0.2000 0.2000 0.0000
vt 0.3000 0.2000 0.0000
vt 0.4000 0.2000 0.0000
vt 0.5000 0.2000 0.0000
vt 0.6000 0.2000 0.0000
vt 0.7000 0.2000 0.0000
vt 0.8000 0.2000 0.0000
vt 0.9000 0.2000 0.0000
vt 1.0000 0.2000 0.0000
vt 0.0000 0.0000 0.0000
vt 0.1000 0.0000 0.0000
vt 0.2000 0.0000 0.0000
vt 0.3000 0.0000 0.0000
vt 0.4000 0.0000 0.0000
vt 0.5000 0.0000 0.0000
vt 0.6000 0.0000 0.0000
vt 0.7000 0.0000 0.0000
vt 0.8000 0.0000 0.0000
vt 0.9000 0.0000 0.0000
# 64 texture coords

g Sphere001
usemtl 03___Default
f 22/39/24 23/40/24 24/41/24 
f 22/42/25 24/41/25 25/43/25 
f 22/44/26 25/43/26 26/45/26 
f 22/46/27 26/45/27 27/47/27 
f 22/48/28 27/47/28 28/49/28 
f 22/50/29 28/49/29 29/51/29 
f 22/52/30 29/51/30 30/53/30 
f 22/54/31 30/53/31 31/55/31 
f 22/56/32 31/55/32 32/57/32 
f 22/58/33 32/57/33 23/59/33 
f 33/60/34 24/41/34 23/40/34 
f 23/40/35 34/61/35 33/60/35 
f 35/62/36 25/43/36 24/41/36 
f 24/41/37 33/60/37 35/62/37 
f 36/63/38 26/45/38 25/43/38 
f 25/43/39 35/62/39 36/63/39 
f 37/64/40 27/47/40 26/45/40 
f 26/45/41 36/63/41 37/64/41 
f 38/65/42 28/49/42 27/47/42 
f 27/47/43 37/64/43 38/65/43 
f 39/66/44 29/51/44 28/49/44 
f 28/49/45 38/65/45 39/66/45 
f 40/67/46 30/53/46 29/51/46 
f 29/51/47 39/66/47 40/67/47 
f 41/68/48 31/55/48 30/53/48 
f 30/53/49 40/67/49 41/68/49 
f 42/69/50 32/57/50 31/55/50 
f 31/55/51 41/68/51 42/69/51 
f 34/70/52 23/59/52 32/57/52 
f 32/57/53 42/69/53 34/70/53 
f 43/71/54 33/60/54 34/61/54 
f 34/61/55 44/72/55 43/71/55 
f 45/73/56 35/62/56 33/60/56 
f 33/60/57 43/71/57 45/73/57 
f 46/74/58 36/63/58 35/62/58 
f 35/62/59 45/73/59 46/74/59 
f 47/75/60 37/64/60 36/63/60 
f 36/63/61 46/74/61 47/75/61 
f 48/76/62 38/65/62 37/64/62 
f 37/64/63 47/75/63 48/76/63 
f 49/77/64 39/66/64 38/65/64 
f 38/65/65 48/76/65 49/77/65 
f 50/78/66 40/67/66 39/66/66 
f 39/66/67 49/77/67 50/78/67 
f 51/79/68 41/68/68 40/67/68 
f 40/67/69 50/78/69 51/79/69 
f 52/80/70 42/69/70 41/68/70 
f 41/68/71 51/79/71 52/80/71 
f 44/81/72 34/70/72 42/69/72 
f 42/69/73 52/80/73 44/81/73 
f 53/82/74 43/71/74 44/72/74 
f 44/72/75 54/83/75 53/82/75 
f 55/84/76 45/73/76 43/71/76 
f 43/71/77 53/82/77 55/84/77 
f 56/85/78 46/74/78 45/73/78 
f 45/73/79 55/84/79 56/85/79 
f 57/86/80 47/75/80 46/74/80 
f 46/74/81 56/85/81 57/86/81 
f 58/87/82 48/76/82 47/75/82 
f 47/75/83 57/86/83 58/87/83 
f 59/88/84 49/77/84 48/76/84 
f 48/76/85 58/87/85 59/88/85 
f 60/89/86 50/78/86 49/77/86 
f 49/77/87 59/88/87 60/89/87 
f 61/90/88 51/79/88 50/78/88 
f 50/78/89 60/89/89 61/90/89 
f 62/91/90 52/80/90 51/79/90 
f 51/79/91 61/90/91 62/91/91 
f 54/92/92 44/81/92 52/80/92 
f 52/80/93 62/91/93 54/92/93 
f 63/93/94 53/82/94 54/83/94 
f 63/94/95 55/84/95 53/82/95 
f 63/95/96 56/85/96 55/84/96 
f 63/96/97 57/86/97 56/85/97 
f 63/97/98 58/87/98 57/86/98 
f 63/98/99 59/88/99 58/87/99 
f 63/99/100 60/89/100 59/88/100 
f 63/100/101 61/90/101 60/89/101 
f 63/101/102 62/91/102 61/90/102 
f 63/102/103 54/92/103 62/91/103 
# 80 faces

#
# object Sphere002
#

v  -1.4094 5.8657 1.4334
v  -1.0132 5.9112 0.7428
v  -0.9450 5.3170 1.0881
v  -0.9450 5.3170 1.7787
v  -1.0132 5.9112 2.1241
v  -1.0814 6.5054 1.7787
v  -1.0814 6.5054 1.0881
v  -0.2209 6.0022 0.7428
v  -0.1527 5.4080 1.0881
v  -0.1527 5.4080 1.7787
v  -0.2209 6.0022 2.1241
v  -0.2892 6.5964 1.7787
v  -0.2892 6.5964 1.0881
v  0.1752 6.0477 1.4334
# 14 vertices

vn -0.7950 -0.3704 -0.4804
vn -0.7633 -0.6460 -0.0000
vn -0.7950 -0.3704 0.4804
vn -0.8583 0.1806 0.4804
vn -0.8899 0.4562 0.0000
vn -0.8583 0.1806 -0.4804
vn 0.0570 -0.4967 -0.8660
vn 0.1141 -0.9935 -0.0000
vn 0.0570 -0.4967 0.8660
vn -0.0570 0.4967 0.8660
vn -0.1141 0.9935 0.0000
vn -0.0570 0.4967 -0.8660
vn 0.8583 -0.1806 -0.4804
vn 0.8899 -0.4562 -0.0000
vn 0.8583 -0.1806 0.4804
vn 0.7950 0.3704 0.4804
vn 0.7633 0.6460 0.0000
vn 0.7950 0.3704 -0.4804
# 18 vertex normals

vt 0.0000 1.0000 0.0000
vt 0.0000 0.6667 0.0000
vt 0.1667 0.6667 0.0000
vt 0.1667 1.0000 0.0000
vt 0.3333 0.6667 0.0000
vt 0.3333 1.0000 0.0000
vt 0.5000 0.6667 0.0000
vt 0.5000 1.0000 0.0000
vt 0.6667 0.6667 0.0000
vt 0.6667 1.0000 0.0000
vt 0.8333 0.6667 0.0000
vt 0.8333 1.0000 0.0000
vt 1.0000 0.6667 0.0000
vt 0.0000 0.3333 0.0000
vt 0.1667 0.3333 0.0000
vt 0.3333 0.3333 0.0000
vt 0.5000 0.3333 0.0000
vt 0.6667 0.3333 0.0000
vt 0.8333 0.3333 0.0000
vt 1.0000 0.3333 0.0000
vt 0.0000 0.0000 0.0000
vt 0.1667 0.0000 0.0000
vt 0.3333 0.0000 0.0000
vt 0.5000 0.0000 0.0000
vt 0.6667 0.0000 0.0000
vt 0.8333 0.0000 0.0000
# 26 texture coords

g Sphere002
usemtl 07___Default
f 64/103/104 65/104/104 66/105/104 
f 64/106/105 66/105/105 67/107/105 
f 64/108/106 67/107/106 68/109/106 
f 64/110/107 68/109/107 69/111/107 
f 64/112/108 69/111/108 70/113/108 
f 64/114/109 70/113/109 65/115/109 
f 65/104/110 71/116/110 72/117/110 
f 65/104/110 72/117/110 66/105/110 
f 66/105/111 72/117/111 73/118/111 
f 66/105/111 73/118/111 67/107/111 
f 67/107/112 73/118/112 74/119/112 
f 67/107/112 74/119/112 68/109/112 
f 68/109/113 74/119/113 75/120/113 
f 68/109/113 75/120/113 69/111/113 
f 69/111/114 75/120/114 76/121/114 
f 69/111/114 76/121/114 70/113/114 
f 70/113/115 76/121/115 71/122/115 
f 70/113/115 71/122/115 65/115/115 
f 77/123/116 72/117/116 71/116/116 
f 77/124/117 73/118/117 72/117/117 
f 77/125/118 74/119/118 73/118/118 
f 77/126/119 75/120/119 74/119/119 
f 77/127/120 76/121/120 75/120/120 
f 77/128/121 71/122/121 76/121/121 
# 24 faces

#
# object Sphere003
#

v  -2.8325 5.0359 0.0454
v  -2.4363 5.0814 -0.6453
v  -2.3681 4.4872 -0.3000
v  -2.3681 4.4872 0.3907
v  -2.4363 5.0814 0.7360
v  -2.5046 5.6756 0.3907
v  -2.5046 5.6756 -0.3000
v  -1.6440 5.1724 -0.6453
v  -1.5758 4.5781 -0.3000
v  -1.5758 4.5781 0.3907
v  -1.6440 5.1724 0.7360
v  -1.7123 5.7666 0.3907
v  -1.7123 5.7666 -0.3000
v  -1.2479 5.2178 0.0454
# 14 vertices

vn -0.7950 -0.3704 -0.4804
vn -0.7633 -0.6460 -0.0000
vn -0.7950 -0.3704 0.4804
vn -0.8583 0.1806 0.4804
vn -0.8899 0.4562 0.0000
vn -0.8583 0.1806 -0.4804
vn 0.0570 -0.4967 -0.8660
vn 0.1141 -0.9935 -0.0000
vn 0.0570 -0.4967 0.8660
vn -0.0570 0.4967 0.8660
vn -0.1141 0.9935 0.0000
vn -0.0570 0.4967 -0.8660
vn 0.8583 -0.1806 -0.4804
vn 0.8899 -0.4562 -0.0000
vn 0.8583 -0.1806 0.4804
vn 0.7950 0.3704 0.4804
vn 0.7633 0.6460 0.0000
vn 0.7950 0.3704 -0.4804
# 18 vertex normals

vt 0.0000 1.0000 0.0000
vt 0.0000 0.6667 0.0000
vt 0.1667 0.6667 0.0000
vt 0.1667 1.0000 0.0000
vt 0.3333 0.6667 0.0000
vt 0.3333 1.0000 0.0000
vt 0.5000 0.6667 0.0000
vt 0.5000 1.0000 0.0000
vt 0.6667 0.6667 0.0000
vt 0.6667 1.0000 0.0000
vt 0.8333 0.6667 0.0000
vt 0.8333 1.0000 0.0000
vt 1.0000 0.6667 0.0000
vt 0.0000 0.3333 0.0000
vt 0.1667 0.3333 0.0000
vt 0.3333 0.3333 0.0000
vt 0.5000 0.3333 0.0000
vt 0.6667 0.3333 0.0000
vt 0.8333 0.3333 0.0000
vt 1.0000 0.3333 0.0000
vt 0.0000 0.0000 0.0000
vt 0.1667 0.0000 0.0000
vt 0.3333 0.0000 0.0000
vt 0.5000 0.0000 0.0000
vt 0.6667 0.0000 0.0000
vt 0.8333 0.0000 0.0000
# 26 texture coords

g Sphere003
usemtl 07___Default
f 78/129/122 79/130/122 80/131/122 
f 78/132/123 80/131/123 81/133/123 
f 78/134/124 81/133/124 82/135/124 
f 78/136/125 82/135/125 83/137/125 
f 78/138/126 83/137/126 84/139/126 
f 78/140/127 84/139/127 79/141/127 
f 79/130/128 85/142/128 86/143/128 
f 79/130/128 86/143/128 80/131/128 
f 80/131/129 86/143/129 87/144/129 
f 80/131/129 87/144/129 81/133/129 
f 81/133/130 87/144/130 88/145/130 
f 81/133/130 88/145/130 82/135/130 
f 82/135/131 88/145/131 89/146/131 
f 82/135/131 89/146/131 83/137/131 
f 83/137/132 89/146/132 90/147/132 
f 83/137/132 90/147/132 84/139/132 
f 84/139/133 90/147/133 85/148/133 
f 84/139/133 85/148/133 79/141/133 
f 91/149/134 86/143/134 85/142/134 
f 91/150/135 87/144/135 86/143/135 
f 91/151/136 88/145/136 87/144/136 
f 91/152/137 89/146/137 88/145/137 
f 91/153/138 90/147/138 89/146/138 
f 91/154/139 85/148/139 90/147/139 
# 24 faces

#
# object Sphere004
#

v  1.0704 5.2357 1.9570
v  1.3151 5.2638 1.5305
v  1.3572 4.8968 1.7438
v  1.3572 4.8968 2.1703
v  1.3151 5.2638 2.3836
v  1.2729 5.6308 2.1703
v  1.2729 5.6308 1.7438
v  1.8044 5.3200 1.5305
v  1.8465 4.9530 1.7438
v  1.8465 4.9530 2.1703
v  1.8044 5.3200 2.3836
v  1.7622 5.6870 2.1703
v  1.7622 5.6870 1.7438
v  2.0490 5.3481 1.9570
# 14 vertices

vn -0.7950 -0.3704 -0.4804
vn -0.7633 -0.6460 -0.0000
vn -0.7950 -0.3704 0.4804
vn -0.8583 0.1806 0.4804
vn -0.8899 0.4562 0.0000
vn -0.8583 0.1806 -0.4804
vn 0.0570 -0.4967 -0.8660
vn 0.1141 -0.9935 -0.0000
vn 0.0570 -0.4967 0.8660
vn -0.0570 0.4967 0.8660
vn -0.1141 0.9935 0.0000
vn -0.0570 0.4967 -0.8660
vn 0.8583 -0.1806 -0.4804
vn 0.8899 -0.4562 -0.0000
vn 0.8583 -0.1806 0.4804
vn 0.7950 0.3704 0.4804
vn 0.7633 0.6460 0.0000
vn 0.7950 0.3704 -0.4804
# 18 vertex normals

vt 0.0000 1.0000 0.0000
vt 0.0000 0.6667 0.0000
vt 0.1667 0.6667 0.0000
vt 0.1667 1.0000 0.0000
vt 0.3333 0.6667 0.0000
vt 0.3333 1.0000 0.0000
vt 0.5000 0.6667 0.0000
vt 0.5000 1.0000 0.0000
vt 0.6667 0.6667 0.0000
vt 0.6667 1.0000 0.0000
vt 0.8333 0.6667 0.0000
vt 0.8333 1.0000 0.0000
vt 1.0000 0.6667 0.0000
vt 0.0000 0.3333 0.0000
vt 0.1667 0.3333 0.0000
vt 0.3333 0.3333 0.0000
vt 0.5000 0.3333 0.0000
vt 0.6667 0.3333 0.0000
vt 0.8333 0.3333 0.0000
vt 1.0000 0.3333 0.0000
vt 0.0000 0.0000 0.0000
vt 0.1667 0.0000 0.0000
vt 0.3333 0.0000 0.0000
vt 0.5000 0.0000 0.0000
vt 0.6667 0.0000 0.0000
vt 0.8333 0.0000 0.0000
# 26 texture coords

g Sphere004
usemtl 07___Default
f 92/155/140 93/156/140 94/157/140 
f 92/158/141 94/157/141 95/159/141 
f 92/160/142 95/159/142 96/161/142 
f 92/162/143 96/161/143 97/163/143 
f 92/164/144 97/163/144 98/165/144 
f 92/166/145 98/165/145 93/167/145 
f 93/156/146 99/168/146 100/169/146 
f 93/156/146 100/169/146 94/157/146 
f 94/157/147 100/169/147 101/170/147 
f 94/157/147 101/170/147 95/159/147 
f 95/159/148 101/170/148 102/171/148 
f 95/159/148 102/171/148 96/161/148 
f 96/161/149 102/171/149 103/172/149 
f 96/161/149 103/172/149 97/163/149 
f 97/163/150 103/172/150 104/173/150 
f 97/163/150 104/173/150 98/165/150 
f 98/165/151 104/173/151 99/174/151 
f 98/165/151 99/174/151 93/167/151 
f 105/175/152 100/169/152 99/168/152 
f 105/176/153 101/170/153 100/169/153 
f 105/177/154 102/171/154 101/170/154 
f 105/178/155 103/172/155 102/171/155 
f 105/179/156 104/173/156 103/172/156 
f 105/180/157 99/174/157 104/173/157 
# 24 faces

#
# object Sphere005
#

v  -0.1568 7.3745 0.3213
v  0.0878 7.4026 -0.1052
v  0.1300 7.0356 0.1081
v  0.1300 7.0356 0.5346
v  0.0878 7.4026 0.7479
v  0.0457 7.7696 0.5346
v  0.0457 7.7696 0.1081
v  0.5771 7.4588 -0.1052
v  0.6193 7.0918 0.1081
v  0.6193 7.0918 0.5346
v  0.5771 7.4588 0.7479
v  0.5350 7.8258 0.5346
v  0.5350 7.8258 0.1081
v  0.8218 7.4869 0.3213
# 14 vertices

vn -0.7950 -0.3704 -0.4804
vn -0.7633 -0.6460 -0.0000
vn -0.7950 -0.3704 0.4804
vn -0.8583 0.1806 0.4804
vn -0.8899 0.4562 0.0000
vn -0.8583 0.1806 -0.4804
vn 0.0570 -0.4967 -0.8660
vn 0.1141 -0.9935 -0.0000
vn 0.0570 -0.4967 0.8660
vn -0.0570 0.4967 0.8660
vn -0.1141 0.9935 0.0000
vn -0.0570 0.4967 -0.8660
vn 0.8583 -0.1806 -0.4804
vn 0.8899 -0.4562 -0.0000
vn 0.8583 -0.1806 0.4804
vn 0.7950 0.3704 0.4804
vn 0.7633 0.6460 0.0000
vn 0.7950 0.3704 -0.4804
# 18 vertex normals

vt 0.0000 1.0000 0.0000
vt 0.0000 0.6667 0.0000
vt 0.1667 0.6667 0.0000
vt 0.1667 1.0000 0.0000
vt 0.3333 0.6667 0.0000
vt 0.3333 1.0000 0.0000
vt 0.5000 0.6667 0.0000
vt 0.5000 1.0000 0.0000
vt 0.6667 0.6667 0.0000
vt 0.6667 1.0000 0.0000
vt 0.8333 0.6667 0.0000
vt 0.8333 1.0000 0.0000
vt 1.0000 0.6667 0.0000
vt 0.0000 0.3333 0.0000
vt 0.1667 0.3333 0.0000
vt 0.3333 0.3333 0.0000
vt 0.5000 0.3333 0.0000
vt 0.6667 0.3333 0.0000
vt 0.8333 0.3333 0.0000
vt 1.0000 0.3333 0.0000
vt 0.0000 0.0000 0.0000
vt 0.1667 0.0000 0.0000
vt 0.3333 0.0000 0.0000
vt 0.5000 0.0000 0.0000
vt 0.6667 0.0000 0.0000
vt 0.8333 0.0000 0.0000
# 26 texture coords

g Sphere005
usemtl 07___Default
f 106/181/158 107/182/158 108/183/158 
f 106/184/159 108/183/159 109/185/159 
f 106/186/160 109/185/160 110/187/160 
f 106/188/161 110/187/161 111/189/161 
f 106/190/162 111/189/162 112/191/162 
f 106/192/163 112/191/163 107/193/163 
f 107/182/164 113/194/164 114/195/164 
f 107/182/164 114/195/164 108/183/164 
f 108/183/165 114/195/165 115/196/165 
f 108/183/165 115/196/165 109/185/165 
f 109/185/166 115/196/166 116/197/166 
f 109/185/166 116/197/166 110/187/166 
f 110/187/167 116/197/167 117/198/167 
f 110/187/167 117/198/167 111/189/167 
f 111/189/168 117/198/168 118/199/168 
f 111/189/168 118/199/168 112/191/168 
f 112/191/169 118/199/169 113/200/169 
f 112/191/169 113/200/169 107/193/169 
f 119/201/170 114/195/170 113/194/170 
f 119/202/171 115/196/171 114/195/171 
f 119/203/172 116/197/172 115/196/172 
f 119/204/173 117/198/173 116/197/173 
f 119/205/174 118/199/174 117/198/174 
f 119/206/175 113/200/175 118/199/175 
# 24 faces

#
# object Sphere006
#

v  0.5288 5.7643 0.3213
v  1.0267 5.8215 -0.5467
v  1.1124 5.0746 -0.1127
v  1.1124 5.0746 0.7554
v  1.0267 5.8215 1.1894
v  0.9409 6.5684 0.7554
v  0.9409 6.5684 -0.1127
v  2.0225 5.9358 -0.5467
v  2.1083 5.1889 -0.1127
v  2.1083 5.1889 0.7554
v  2.0225 5.9358 1.1894
v  1.9368 6.6827 0.7554
v  1.9368 6.6827 -0.1127
v  2.5205 5.9930 0.3213
# 14 vertices

vn -0.7950 -0.3704 -0.4804
vn -0.7633 -0.6460 -0.0000
vn -0.7950 -0.3704 0.4804
vn -0.8583 0.1806 0.4804
vn -0.8899 0.4562 0.0000
vn -0.8583 0.1806 -0.4804
vn 0.0570 -0.4967 -0.8660
vn 0.1141 -0.9935 -0.0000
vn 0.0570 -0.4967 0.8660
vn -0.0570 0.4967 0.8660
vn -0.1141 0.9935 0.0000
vn -0.0570 0.4967 -0.8660
vn 0.8583 -0.1806 -0.4804
vn 0.8899 -0.4562 -0.0000
vn 0.8583 -0.1806 0.4804
vn 0.7950 0.3704 0.4804
vn 0.7633 0.6460 0.0000
vn 0.7950 0.3704 -0.4804
# 18 vertex normals

vt 0.0000 1.0000 0.0000
vt 0.0000 0.6667 0.0000
vt 0.1667 0.6667 0.0000
vt 0.1667 1.0000 0.0000
vt 0.3333 0.6667 0.0000
vt 0.3333 1.0000 0.0000
vt 0.5000 0.6667 0.0000
vt 0.5000 1.0000 0.0000
vt 0.6667 0.6667 0.0000
vt 0.6667 1.0000 0.0000
vt 0.8333 0.6667 0.0000
vt 0.8333 1.0000 0.0000
vt 1.0000 0.6667 0.0000
vt 0.0000 0.3333 0.0000
vt 0.1667 0.3333 0.0000
vt 0.3333 0.3333 0.0000
vt 0.5000 0.3333 0.0000
vt 0.6667 0.3333 0.0000
vt 0.8333 0.3333 0.0000
vt 1.0000 0.3333 0.0000
vt 0.0000 0.0000 0.0000
vt 0.1667 0.0000 0.0000
vt 0.3333 0.0000 0.0000
vt 0.5000 0.0000 0.0000
vt 0.6667 0.0000 0.0000
vt 0.8333 0.0000 0.0000
# 26 texture coords

g Sphere006
usemtl 07___Default
f 120/207/176 121/208/176 122/209/176 
f 120/210/177 122/209/177 123/211/177 
f 120/212/178 123/211/178 124/213/178 
f 120/214/179 124/213/179 125/215/179 
f 120/216/180 125/215/180 126/217/180 
f 120/218/181 126/217/181 121/219/181 
f 121/208/182 127/220/182 128/221/182 
f 121/208/182 128/221/182 122/209/182 
f 122/209/183 128/221/183 129/222/183 
f 122/209/183 129/222/183 123/211/183 
f 123/211/184 129/222/184 130/223/184 
f 123/211/184 130/223/184 124/213/184 
f 124/213/185 130/223/185 131/224/185 
f 124/213/185 131/224/185 125/215/185 
f 125/215/186 131/224/186 132/225/186 
f 125/215/186 132/225/186 126/217/186 
f 126/217/187 132/225/187 127/226/187 
f 126/217/187 127/226/187 121/219/187 
f 133/227/188 128/221/188 127/220/188 
f 133/228/189 129/222/189 128/221/189 
f 133/229/190 130/223/190 129/222/190 
f 133/230/191 131/224/191 130/223/191 
f 133/231/192 132/225/192 131/224/192 
f 133/232/193 127/226/193 132/225/193 
# 24 faces

#
# object Torus001
#

