# 3ds Max Wavefront OBJ Exporter v0.97b - (c)2007 guruware
# File Created: 05.07.2011 17:46:19

mtllib Tree_Right_Arm.mtl

#
# object Cylinder009
#

v  -0.6828 2.6518 0.1043
v  -0.5855 2.7646 0.0183
v  -2.6646 4.5557 0.0183
v  -2.7618 4.4429 0.1043
v  -0.5855 2.7646 -0.1537
v  -2.6646 4.5557 -0.1537
v  -0.6828 2.6518 -0.2397
v  -2.7618 4.4429 -0.2397
v  -0.7800 2.5389 -0.1537
v  -2.8590 4.3301 -0.1537
v  -0.7800 2.5389 0.0183
v  -2.8590 4.3301 0.0183
# 12 vertices

vn -0.0000 -0.0000 1.0000
vn 0.5653 0.6561 0.5000
vn 0.5653 0.6561 -0.5000
vn 0.0000 0.0000 -1.0000
vn -0.5653 -0.6561 -0.5000
vn -0.5653 -0.6561 0.5000
vn 0.7576 -0.6527 0.0000
vn -0.7576 0.6527 -0.0000
# 8 vertex normals

vt 0.7500 0.0000 1.0000
vt 0.9167 0.0000 1.0000
vt 0.9167 1.0000 1.0000
vt 0.7500 1.0000 1.0000
vt 1.0833 0.0000 1.0000
vt 1.0833 1.0000 1.0000
vt 0.0833 0.0000 1.0000
vt 0.2500 0.0000 1.0000
vt 0.2500 1.0000 1.0000
vt 0.0833 1.0000 1.0000
vt 0.4167 0.0000 1.0000
vt 0.4167 1.0000 1.0000
vt 0.5833 0.0000 1.0000
vt 0.5833 1.0000 1.0000
vt 0.9330 0.2500 -0.2500
vt 0.5000 0.0000 -0.2500
vt 0.0670 0.2500 -0.2500
vt 0.0670 0.7500 -0.2500
vt 0.5000 1.0000 -0.2500
vt 0.9330 0.7500 -0.2500
vt 0.0670 0.7500 0.2500
vt 0.0670 0.2500 0.2500
vt 0.5000 0.0000 0.2500
vt 0.9330 0.2500 0.2500
vt 0.9330 0.7500 0.2500
vt 0.5000 1.0000 0.2500
# 26 texture coords

g Cylinder009
usemtl 08___Default
f 1/1/1 2/2/2 3/3/2 
f 3/3/2 4/4/1 1/1/1 
f 2/2/2 5/5/3 6/6/3 
f 6/6/3 3/3/2 2/2/2 
f 5/7/3 7/8/4 8/9/4 
f 8/9/4 6/10/3 5/7/3 
f 7/8/4 9/11/5 10/12/5 
f 10/12/5 8/9/4 7/8/4 
f 9/11/5 11/13/6 12/14/6 
f 12/14/6 10/12/5 9/11/5 
f 11/13/6 1/1/1 4/4/1 
f 4/4/1 12/14/6 11/13/6 
f 9/15/7 7/16/7 5/17/7 
f 5/17/7 2/18/7 1/19/7 
f 9/15/7 5/17/7 1/19/7 
f 11/20/7 9/15/7 1/19/7 
f 3/21/8 6/22/8 8/23/8 
f 8/23/8 10/24/8 12/25/8 
f 3/21/8 8/23/8 12/25/8 
f 4/26/8 3/21/8 12/25/8 
# 20 faces

#
# object Cylinder013
#

v  -2.8047 4.3961 -0.1092
v  -2.7945 4.4356 -0.0839
v  -2.8088 4.3957 -0.0614
v  -2.7904 4.4360 -0.1317
v  -2.8005 4.3965 -0.1570
v  -2.8148 4.3566 -0.1345
v  -2.8189 4.3562 -0.0867
v  -3.5238 4.6614 -0.1450
v  -3.5380 4.6215 -0.1225
v  -3.5197 4.6618 -0.1928
v  -3.5298 4.6223 -0.2181
v  -3.5440 4.5824 -0.1956
v  -3.5482 4.5820 -0.1478
v  -3.5339 4.6219 -0.1703
# 14 vertices

vn 0.9522 -0.2948 0.0798
vn 0.0720 0.4706 0.8794
vn 0.2931 0.9555 0.0333
vn 0.2210 0.4849 -0.8462
vn -0.0720 -0.4706 -0.8794
vn -0.2931 -0.9555 -0.0333
vn -0.2210 -0.4849 0.8462
vn -0.9522 0.2948 -0.0798
# 8 vertex normals

vt 0.5000 0.0000 0.0000
vt 0.9167 0.0000 1.0000
vt 0.7500 0.0000 1.0000
vt 0.0833 0.0000 1.0000
vt -0.0833 0.0000 1.0000
vt 0.2500 0.0000 1.0000
vt 0.4167 0.0000 1.0000
vt 0.5833 0.0000 1.0000
vt 0.9167 1.0000 1.0000
vt 0.7500 1.0000 1.0000
vt 0.0833 1.0000 1.0000
vt -0.0833 1.0000 1.0000
vt 0.2500 1.0000 1.0000
vt 0.4167 1.0000 1.0000
vt 0.5833 1.0000 1.0000
vt 0.5000 1.0000 0.0000
# 16 texture coords

g Cylinder013
usemtl 08___Default
f 13/27/9 14/28/9 15/29/9 
f 13/27/9 16/30/9 14/31/9 
f 13/27/9 17/32/9 16/30/9 
f 13/27/9 18/33/9 17/32/9 
f 13/27/9 19/34/9 18/33/9 
f 13/27/9 15/29/9 19/34/9 
f 15/29/10 20/35/10 21/36/10 
f 15/29/10 14/28/10 20/35/10 
f 14/31/11 22/37/11 20/38/11 
f 14/31/11 16/30/11 22/37/11 
f 16/30/12 23/39/12 22/37/12 
f 16/30/12 17/32/12 23/39/12 
f 17/32/13 24/40/13 23/39/13 
f 17/32/13 18/33/13 24/40/13 
f 18/33/14 25/41/14 24/40/14 
f 18/33/14 19/34/14 25/41/14 
f 19/34/15 21/36/15 25/41/15 
f 19/34/15 15/29/15 21/36/15 
f 26/42/16 21/36/16 20/35/16 
f 26/42/16 20/38/16 22/37/16 
f 26/42/16 22/37/16 23/39/16 
f 26/42/16 23/39/16 24/40/16 
f 26/42/16 24/40/16 25/41/16 
f 26/42/16 25/41/16 21/36/16 
# 24 faces

#
# object Cylinder014
#

v  -2.7569 4.4516 0.0008
v  -2.7238 4.4780 0.0235
v  -2.7450 4.4414 0.0462
v  -2.7357 4.4882 -0.0219
v  -2.7687 4.4618 -0.0446
v  -2.7899 4.4252 -0.0219
v  -2.7781 4.4150 0.0235
v  -3.2725 4.9506 0.2728
v  -3.2937 4.9140 0.2955
v  -3.2843 4.9608 0.2274
v  -3.3173 4.9344 0.2047
v  -3.3385 4.8978 0.2274
v  -3.3267 4.8876 0.2728
v  -3.3055 4.9242 0.2501
# 14 vertices

vn 0.7164 -0.6172 -0.3255
vn 0.5399 0.1948 0.8189
vn 0.6527 0.7576 -0.0000
vn 0.1128 0.5628 -0.8189
vn -0.5399 -0.1948 -0.8189
vn -0.6527 -0.7576 -0.0000
vn -0.1128 -0.5628 0.8189
vn -0.7164 0.6172 0.3255
# 8 vertex normals

vt 0.5000 0.0000 0.0000
vt 0.9167 0.0000 1.0000
vt 0.7500 0.0000 1.0000
vt 0.0833 0.0000 1.0000
vt -0.0833 0.0000 1.0000
vt 0.2500 0.0000 1.0000
vt 0.4167 0.0000 1.0000
vt 0.5833 0.0000 1.0000
vt 0.9167 1.0000 1.0000
vt 0.7500 1.0000 1.0000
vt 0.0833 1.0000 1.0000
vt -0.0833 1.0000 1.0000
vt 0.2500 1.0000 1.0000
vt 0.4167 1.0000 1.0000
vt 0.5833 1.0000 1.0000
vt 0.5000 1.0000 0.0000
# 16 texture coords

g Cylinder014
usemtl 08___Default
f 27/43/17 28/44/17 29/45/17 
f 27/43/17 30/46/17 28/47/17 
f 27/43/17 31/48/17 30/46/17 
f 27/43/17 32/49/17 31/48/17 
f 27/43/17 33/50/17 32/49/17 
f 27/43/17 29/45/17 33/50/17 
f 29/45/18 34/51/18 35/52/18 
f 29/45/18 28/44/18 34/51/18 
f 28/47/19 36/53/19 34/54/19 
f 28/47/19 30/46/19 36/53/19 
f 30/46/20 37/55/20 36/53/20 
f 30/46/20 31/48/20 37/55/20 
f 31/48/21 38/56/21 37/55/21 
f 31/48/21 32/49/21 38/56/21 
f 32/49/22 39/57/22 38/56/22 
f 32/49/22 33/50/22 39/57/22 
f 33/50/23 35/52/23 39/57/23 
f 33/50/23 29/45/23 35/52/23 
f 40/58/24 35/52/24 34/51/24 
f 40/58/24 34/54/24 36/53/24 
f 40/58/24 36/53/24 37/55/24 
f 40/58/24 37/55/24 38/56/24 
f 40/58/24 38/56/24 39/57/24 
f 40/58/24 39/57/24 35/52/24 
# 24 faces

#
# object Cylinder015
#

v  -2.7297 4.4831 -0.1369
v  -2.6993 4.5089 -0.1103
v  -2.7394 4.4914 -0.0907
v  -2.6896 4.5006 -0.1566
v  -2.7201 4.4747 -0.1832
v  -2.7602 4.4572 -0.1635
v  -2.7699 4.4656 -0.1173
v  -3.0734 5.1485 -0.3040
v  -3.1135 5.1310 -0.2844
v  -3.0637 5.1402 -0.3503
v  -3.0942 5.1143 -0.3769
v  -3.1343 5.0968 -0.3573
v  -3.1440 5.1051 -0.3110
v  -3.1039 5.1226 -0.3306
# 14 vertices

vn 0.4885 -0.8351 0.2529
vn 0.2497 0.4115 0.8765
vn 0.8489 0.5219 0.0836
vn 0.5992 0.1104 -0.7929
vn -0.2497 -0.4115 -0.8765
vn -0.8489 -0.5219 -0.0836
vn -0.5992 -0.1104 0.7929
vn -0.4885 0.8351 -0.2529
# 8 vertex normals

vt 0.5000 0.0000 0.0000
vt 0.9167 0.0000 1.0000
vt 0.7500 0.0000 1.0000
vt 0.0833 0.0000 1.0000
vt -0.0833 0.0000 1.0000
vt 0.2500 0.0000 1.0000
vt 0.4167 0.0000 1.0000
vt 0.5833 0.0000 1.0000
vt 0.9167 1.0000 1.0000
vt 0.7500 1.0000 1.0000
vt 0.0833 1.0000 1.0000
vt -0.0833 1.0000 1.0000
vt 0.2500 1.0000 1.0000
vt 0.4167 1.0000 1.0000
vt 0.5833 1.0000 1.0000
vt 0.5000 1.0000 0.0000
# 16 texture coords

g Cylinder015
usemtl 08___Default
f 41/59/25 42/60/25 43/61/25 
f 41/59/25 44/62/25 42/63/25 
f 41/59/25 45/64/25 44/62/25 
f 41/59/25 46/65/25 45/64/25 
f 41/59/25 47/66/25 46/65/25 
f 41/59/25 43/61/25 47/66/25 
f 43/61/26 48/67/26 49/68/26 
f 43/61/26 42/60/26 48/67/26 
f 42/63/27 50/69/27 48/70/27 
f 42/63/27 44/62/27 50/69/27 
f 44/62/28 51/71/28 50/69/28 
f 44/62/28 45/64/28 51/71/28 
f 45/64/29 52/72/29 51/71/29 
f 45/64/29 46/65/29 52/72/29 
f 46/65/30 53/73/30 52/72/30 
f 46/65/30 47/66/30 53/73/30 
f 47/66/31 49/68/31 53/73/31 
f 47/66/31 43/61/31 49/68/31 
f 54/74/32 49/68/32 48/67/32 
f 54/74/32 48/70/32 50/69/32 
f 54/74/32 50/69/32 51/71/32 
f 54/74/32 51/71/32 52/72/32 
f 54/74/32 52/72/32 53/73/32 
f 54/74/32 53/73/32 49/68/32 
# 24 faces

